# Blender 4.3.2
# www.blender.org
mtllib brinsDherbe.mtl
o Plan
v 0.212662 0.535331 0.000310
v -0.010779 -0.016826 -0.007897
v 0.213247 0.534872 0.002621
v -0.004467 -0.017387 0.011815
v 0.173904 0.488914 -0.006358
v 0.139146 0.439327 -0.009986
v 0.107435 0.387623 -0.013226
v 0.079680 0.333638 -0.014454
v 0.055676 0.277868 -0.014454
v 0.034932 0.220805 -0.014454
v 0.018144 0.162471 -0.013226
v 0.005180 0.103214 -0.011184
v -0.004770 0.043434 -0.009986
v 0.002908 0.042302 0.014154
v 0.013579 0.101474 0.015496
v 0.027772 0.159888 0.017783
v 0.045190 0.217407 0.019159
v 0.065721 0.273884 0.019159
v 0.089478 0.329081 0.019159
v 0.116216 0.382904 0.017783
v 0.145759 0.435265 0.014154
v 0.178243 0.485891 0.010090
v 0.213938 0.534328 0.000903
v -0.004848 -0.017353 0.000903
v 0.178123 0.485974 0.000903
v 0.145159 0.435634 0.000903
v 0.115157 0.383474 0.000903
v 0.088216 0.329668 0.000903
v 0.064427 0.274397 0.000903
v 0.043869 0.217845 0.000903
v 0.026610 0.160200 0.000903
v 0.012709 0.101655 0.000903
v 0.002211 0.042404 0.000903
vn -0.9919 0.1190 0.0449
vn -0.8092 0.5836 -0.0671
vn -0.8378 0.5446 0.0378
vn -0.8662 0.4957 0.0631
vn -0.8921 0.4459 0.0736
vn -0.9159 0.3942 0.0760
vn -0.9371 0.3407 0.0760
vn -0.9552 0.2867 0.0736
vn -0.9705 0.2318 0.0663
vn -0.9829 0.1751 0.0571
vn -0.8286 0.1478 0.5399
vn -0.8238 0.1971 0.5315
vn -0.8153 0.2449 0.5247
vn -0.8013 0.2913 0.5225
vn -0.7832 0.3371 0.5225
vn -0.7616 0.3805 0.5247
vn -0.7339 0.4194 0.5344
vn -0.6964 0.4517 0.5576
vn -0.6172 0.4397 0.6525
vn -0.8284 0.0998 0.5511
vt 0.900000 0.500000
vt 1.000000 0.500000
vt 1.000000 1.000000
vt 0.900000 1.000000
vt 0.000000 0.500000
vt 0.100000 0.500000
vt 0.100000 1.000000
vt 0.000000 1.000000
vt 0.200000 0.500000
vt 0.200000 1.000000
vt 0.300000 0.500000
vt 0.300000 1.000000
vt 0.400000 0.500000
vt 0.400000 1.000000
vt 0.500000 0.500000
vt 0.500000 1.000000
vt 0.600000 0.500000
vt 0.600000 1.000000
vt 0.700000 0.500000
vt 0.700000 1.000000
vt 0.800000 0.500000
vt 0.800000 1.000000
vt 0.800000 0.000000
vt 0.900000 0.000000
vt 0.700000 0.000000
vt 0.600000 0.000000
vt 0.500000 0.000000
vt 0.400000 0.000000
vt 0.300000 0.000000
vt 0.200000 0.000000
vt 0.100000 0.000000
vt 0.000000 0.000000
vt 1.000000 0.000000
s 0
usemtl Matériau
f 33/1/1 24/2/1 4/3/1 14/4/1
f 23/5/2 25/6/2 22/7/2 3/8/2
f 25/6/3 26/9/3 21/10/3 22/7/3
f 26/9/4 27/11/4 20/12/4 21/10/4
f 27/11/5 28/13/5 19/14/5 20/12/5
f 28/13/6 29/15/6 18/16/6 19/14/6
f 29/15/7 30/17/7 17/18/7 18/16/7
f 30/17/8 31/19/8 16/20/8 17/18/8
f 31/19/9 32/21/9 15/22/9 16/20/9
f 32/21/10 33/1/10 14/4/10 15/22/10
f 12/23/11 13/24/11 33/1/11 32/21/11
f 11/25/12 12/23/12 32/21/12 31/19/12
f 10/26/13 11/25/13 31/19/13 30/17/13
f 9/27/14 10/26/14 30/17/14 29/15/14
f 8/28/15 9/27/15 29/15/15 28/13/15
f 7/29/16 8/28/16 28/13/16 27/11/16
f 6/30/17 7/29/17 27/11/17 26/9/17
f 5/31/18 6/30/18 26/9/18 25/6/18
f 1/32/19 5/31/19 25/6/19 23/5/19
f 13/24/20 2/33/20 24/2/20 33/1/20
o Plan.001
v 0.186548 0.469660 -0.862744
v -0.060806 -0.027649 -0.038471
v 0.190782 0.468417 -0.860715
v -0.019433 -0.026820 -0.040042
v 0.145124 0.531385 -0.764045
v 0.106079 0.565454 -0.651267
v 0.066332 0.572114 -0.533091
v 0.030858 0.549067 -0.415258
v 0.000028 0.498300 -0.304920
v -0.027044 0.423588 -0.208030
v -0.046380 0.327856 -0.129700
v -0.057704 0.216673 -0.074000
v -0.063904 0.096345 -0.042906
v -0.013278 0.093930 -0.044680
v -0.002020 0.210344 -0.074997
v 0.017779 0.316606 -0.128864
v 0.041665 0.407769 -0.204122
v 0.067704 0.479631 -0.297315
v 0.097358 0.528461 -0.403444
v 0.126515 0.552248 -0.518025
v 0.152008 0.550078 -0.636232
v 0.175809 0.521482 -0.751617
v 0.187213 0.466945 -0.860710
v -0.040656 -0.026870 -0.045179
v 0.158140 0.521755 -0.756660
v 0.126536 0.551473 -0.643549
v 0.093946 0.554645 -0.526914
v 0.061967 0.531115 -0.412461
v 0.032162 0.482035 -0.305790
v 0.005990 0.409806 -0.212121
v -0.015269 0.317963 -0.136037
v -0.030574 0.211000 -0.081260
v -0.039177 0.094149 -0.050472
vn -0.2255 0.0471 0.9731
vn 0.0543 0.8954 -0.4419
vn 0.1013 0.9696 -0.2229
vn 0.0669 0.9977 -0.0061
vn 0.0182 0.9782 0.2069
vn -0.0360 0.9116 0.4094
vn -0.0872 0.8005 0.5929
vn -0.1329 0.6509 0.7475
vn -0.1735 0.4696 0.8657
vn -0.2044 0.2643 0.9425
vn 0.2991 0.2234 0.9277
vn 0.3083 0.3996 0.8633
vn 0.3294 0.5566 0.7627
vn 0.3641 0.6856 0.6304
vn 0.4080 0.7808 0.4732
vn 0.4585 0.8363 0.3008
vn 0.5179 0.8464 0.1241
vn 0.5889 0.8070 -0.0437
vn 0.7157 0.6834 -0.1439
vn 0.3040 0.0398 0.9518
vt 0.900000 0.500000
vt 1.000000 0.500000
vt 1.000000 1.000000
vt 0.900000 1.000000
vt 0.000000 0.500000
vt 0.100000 0.500000
vt 0.100000 1.000000
vt 0.000000 1.000000
vt 0.200000 0.500000
vt 0.200000 1.000000
vt 0.300000 0.500000
vt 0.300000 1.000000
vt 0.400000 0.500000
vt 0.400000 1.000000
vt 0.500000 0.500000
vt 0.500000 1.000000
vt 0.600000 0.500000
vt 0.600000 1.000000
vt 0.700000 0.500000
vt 0.700000 1.000000
vt 0.800000 0.500000
vt 0.800000 1.000000
vt 0.800000 0.000000
vt 0.900000 0.000000
vt 0.700000 0.000000
vt 0.600000 0.000000
vt 0.500000 0.000000
vt 0.400000 0.000000
vt 0.300000 0.000000
vt 0.200000 0.000000
vt 0.100000 0.000000
vt 0.000000 0.000000
vt 1.000000 0.000000
s 0
usemtl Matériau
f 66/34/21 57/35/21 37/36/21 47/37/21
f 56/38/22 58/39/22 55/40/22 36/41/22
f 58/39/23 59/42/23 54/43/23 55/40/23
f 59/42/24 60/44/24 53/45/24 54/43/24
f 60/44/25 61/46/25 52/47/25 53/45/25
f 61/46/26 62/48/26 51/49/26 52/47/26
f 62/48/27 63/50/27 50/51/27 51/49/27
f 63/50/28 64/52/28 49/53/28 50/51/28
f 64/52/29 65/54/29 48/55/29 49/53/29
f 65/54/30 66/34/30 47/37/30 48/55/30
f 45/56/31 46/57/31 66/34/31 65/54/31
f 44/58/32 45/56/32 65/54/32 64/52/32
f 43/59/33 44/58/33 64/52/33 63/50/33
f 42/60/34 43/59/34 63/50/34 62/48/34
f 41/61/35 42/60/35 62/48/35 61/46/35
f 40/62/36 41/61/36 61/46/36 60/44/36
f 39/63/37 40/62/37 60/44/37 59/42/37
f 38/64/38 39/63/38 59/42/38 58/39/38
f 34/65/39 38/64/39 58/39/39 56/38/39
f 46/57/40 35/66/40 57/35/40 66/34/40
o Plan.002
v -0.005537 0.727255 0.126504
v -0.019408 -0.058528 0.088808
v -0.008750 0.727602 0.126698
v -0.046947 -0.059820 0.090275
v -0.002792 0.647990 0.138270
v -0.003502 0.568940 0.147168
v -0.003809 0.489715 0.152279
v -0.006079 0.410588 0.154193
v -0.009168 0.331526 0.152634
v -0.011276 0.252605 0.147168
v -0.014195 0.173982 0.138239
v -0.017315 0.095762 0.125708
v -0.018206 0.018245 0.109021
v -0.051943 0.017171 0.110957
v -0.054608 0.095144 0.127973
v -0.057537 0.173931 0.140985
v -0.058247 0.253278 0.150231
v -0.056121 0.332932 0.155749
v -0.053002 0.412728 0.157321
v -0.047062 0.492364 0.155145
v -0.037141 0.571528 0.149357
v -0.025685 0.650108 0.139716
v -0.006796 0.727760 0.128367
v -0.032720 -0.060295 0.093324
v -0.013767 0.649553 0.142495
v -0.019794 0.570664 0.152729
v -0.024863 0.491298 0.159041
v -0.028960 0.411660 0.161414
v -0.032075 0.331959 0.159843
v -0.034199 0.252400 0.154332
v -0.035327 0.173190 0.144895
v -0.035457 0.094535 0.131557
v -0.034587 0.016639 0.114352
vn 0.2009 0.2645 -0.9432
vn 0.2933 -0.2077 -0.9332
vn 0.1968 -0.1442 -0.9698
vn 0.1757 -0.0914 -0.9802
vn 0.1684 -0.0387 -0.9850
vn 0.1684 0.0128 -0.9856
vn 0.1700 0.0636 -0.9834
vn 0.1734 0.1148 -0.9781
vn 0.1810 0.1655 -0.9695
vn 0.1898 0.2147 -0.9581
vn -0.3167 0.2021 -0.9267
vn -0.3069 0.1610 -0.9380
vn -0.2997 0.1178 -0.9467
vn -0.2981 0.0739 -0.9517
vn -0.2995 0.0305 -0.9536
vn -0.3040 -0.0135 -0.9526
vn -0.3174 -0.0574 -0.9465
vn -0.3466 -0.0982 -0.9328
vn -0.4594 -0.1321 -0.8784
vn -0.3301 0.2433 -0.9121
vt 0.900000 0.500000
vt 1.000000 0.500000
vt 1.000000 1.000000
vt 0.900000 1.000000
vt 0.000000 0.500000
vt 0.100000 0.500000
vt 0.100000 1.000000
vt 0.000000 1.000000
vt 0.200000 0.500000
vt 0.200000 1.000000
vt 0.300000 0.500000
vt 0.300000 1.000000
vt 0.400000 0.500000
vt 0.400000 1.000000
vt 0.500000 0.500000
vt 0.500000 1.000000
vt 0.600000 0.500000
vt 0.600000 1.000000
vt 0.700000 0.500000
vt 0.700000 1.000000
vt 0.800000 0.500000
vt 0.800000 1.000000
vt 0.800000 0.000000
vt 0.900000 0.000000
vt 0.700000 0.000000
vt 0.600000 0.000000
vt 0.500000 0.000000
vt 0.400000 0.000000
vt 0.300000 0.000000
vt 0.200000 0.000000
vt 0.100000 0.000000
vt 0.000000 0.000000
vt 1.000000 0.000000
s 0
usemtl Matériau
f 99/67/41 90/68/41 70/69/41 80/70/41
f 89/71/42 91/72/42 88/73/42 69/74/42
f 91/72/43 92/75/43 87/76/43 88/73/43
f 92/75/44 93/77/44 86/78/44 87/76/44
f 93/77/45 94/79/45 85/80/45 86/78/45
f 94/79/46 95/81/46 84/82/46 85/80/46
f 95/81/47 96/83/47 83/84/47 84/82/47
f 96/83/48 97/85/48 82/86/48 83/84/48
f 97/85/49 98/87/49 81/88/49 82/86/49
f 98/87/50 99/67/50 80/70/50 81/88/50
f 78/89/51 79/90/51 99/67/51 98/87/51
f 77/91/52 78/89/52 98/87/52 97/85/52
f 76/92/53 77/91/53 97/85/53 96/83/53
f 75/93/54 76/92/54 96/83/54 95/81/54
f 74/94/55 75/93/55 95/81/55 94/79/55
f 73/95/56 74/94/56 94/79/56 93/77/56
f 72/96/57 73/95/57 93/77/57 92/75/57
f 71/97/58 72/96/58 92/75/58 91/72/58
f 67/98/59 71/97/59 91/72/59 89/71/59
f 79/90/60 68/99/60 90/68/60 99/67/60
o Plan.003
v -0.498634 0.840167 -0.005213
v -0.074253 -0.051353 0.010954
v -0.499483 0.839287 -0.009071
v -0.084583 -0.052249 -0.021961
v -0.425406 0.770799 0.006329
v -0.359086 0.694503 0.012765
v -0.298459 0.613350 0.018520
v -0.245122 0.527093 0.020880
v -0.198926 0.436767 0.021150
v -0.159209 0.343410 0.021383
v -0.127189 0.247171 0.019524
v -0.102738 0.148830 0.016265
v -0.084574 0.049251 0.014375
v -0.097117 0.047248 -0.025934
v -0.116409 0.145627 -0.028284
v -0.142776 0.242317 -0.032250
v -0.175691 0.336948 -0.034736
v -0.214911 0.429136 -0.034966
v -0.260529 0.518333 -0.035233
v -0.312067 0.604266 -0.033242
v -0.369154 0.686685 -0.027529
v -0.431873 0.764991 -0.021123
v -0.500532 0.838245 -0.006214
v -0.084055 -0.052195 -0.003772
v -0.431780 0.765151 -0.005811
v -0.368349 0.687394 -0.005439
v -0.310553 0.605361 -0.005100
v -0.258681 0.519461 -0.004796
v -0.212989 0.430119 -0.004528
v -0.173705 0.337780 -0.004297
v -0.141024 0.242903 -0.004106
v -0.115108 0.145959 -0.003954
v -0.096087 0.047430 -0.003842
vn 0.9918 0.1216 -0.0391
vn 0.7350 0.6743 0.0714
vn 0.7766 0.6291 -0.0333
vn 0.8175 0.5730 -0.0583
vn 0.8545 0.5149 -0.0686
vn 0.8882 0.4540 -0.0708
vn 0.9180 0.3904 -0.0706
vn 0.9431 0.3255 -0.0681
vn 0.9640 0.2590 -0.0606
vn 0.9804 0.1901 -0.0513
vn 0.8295 0.1605 -0.5350
vn 0.8211 0.2202 -0.5266
vn 0.8077 0.2780 -0.5199
vn 0.7877 0.3338 -0.5178
vn 0.7622 0.3883 -0.5179
vn 0.7322 0.4394 -0.5203
vn 0.6955 0.4849 -0.5302
vn 0.6488 0.5220 -0.5538
vn 0.5653 0.5090 -0.6491
vn 0.8314 0.1020 -0.5462
vt 0.900000 0.500000
vt 1.000000 0.500000
vt 1.000000 1.000000
vt 0.900000 1.000000
vt 0.000000 0.500000
vt 0.100000 0.500000
vt 0.100000 1.000000
vt 0.000000 1.000000
vt 0.200000 0.500000
vt 0.200000 1.000000
vt 0.300000 0.500000
vt 0.300000 1.000000
vt 0.400000 0.500000
vt 0.400000 1.000000
vt 0.500000 0.500000
vt 0.500000 1.000000
vt 0.600000 0.500000
vt 0.600000 1.000000
vt 0.700000 0.500000
vt 0.700000 1.000000
vt 0.800000 0.500000
vt 0.800000 1.000000
vt 0.800000 0.000000
vt 0.900000 0.000000
vt 0.700000 0.000000
vt 0.600000 0.000000
vt 0.500000 0.000000
vt 0.400000 0.000000
vt 0.300000 0.000000
vt 0.200000 0.000000
vt 0.100000 0.000000
vt 0.000000 0.000000
vt 1.000000 0.000000
s 0
usemtl Matériau
f 132/100/61 123/101/61 103/102/61 113/103/61
f 122/104/62 124/105/62 121/106/62 102/107/62
f 124/105/63 125/108/63 120/109/63 121/106/63
f 125/108/64 126/110/64 119/111/64 120/109/64
f 126/110/65 127/112/65 118/113/65 119/111/65
f 127/112/66 128/114/66 117/115/66 118/113/66
f 128/114/67 129/116/67 116/117/67 117/115/67
f 129/116/68 130/118/68 115/119/68 116/117/68
f 130/118/69 131/120/69 114/121/69 115/119/69
f 131/120/70 132/100/70 113/103/70 114/121/70
f 111/122/71 112/123/71 132/100/71 131/120/71
f 110/124/72 111/122/72 131/120/72 130/118/72
f 109/125/73 110/124/73 130/118/73 129/116/73
f 108/126/74 109/125/74 129/116/74 128/114/74
f 107/127/75 108/126/75 128/114/75 127/112/75
f 106/128/76 107/127/76 127/112/76 126/110/76
f 105/129/77 106/128/77 126/110/77 125/108/77
f 104/130/78 105/129/78 125/108/78 124/105/78
f 100/131/79 104/130/79 124/105/79 122/104/79
f 112/123/80 101/132/80 123/101/80 132/100/80
o Plan.004
v -0.213370 0.445998 0.120685
v -0.086992 -0.033920 0.064335
v -0.214737 0.445728 0.119218
v -0.099104 -0.034423 0.052056
v -0.189678 0.401681 0.114912
v -0.169623 0.355955 0.108143
v -0.151304 0.309401 0.101890
v -0.135969 0.261877 0.095269
v -0.123074 0.213626 0.088737
v -0.111719 0.164891 0.082985
v -0.102854 0.115625 0.077347
v -0.096182 0.065978 0.072061
v -0.090451 0.016146 0.068038
v -0.105262 0.015302 0.052990
v -0.112518 0.064794 0.055412
v -0.121790 0.113958 0.057973
v -0.132184 0.162771 0.061952
v -0.143466 0.211196 0.067667
v -0.156280 0.259140 0.074158
v -0.169957 0.306595 0.082371
v -0.184071 0.353555 0.092911
v -0.199468 0.399901 0.104506
v -0.214679 0.445408 0.120793
v -0.094712 -0.034392 0.060024
v -0.195910 0.399950 0.111286
v -0.178595 0.353773 0.102515
v -0.162759 0.306934 0.094493
v -0.148419 0.259492 0.087230
v -0.135596 0.211509 0.080734
v -0.124304 0.163044 0.075014
v -0.114558 0.114159 0.070077
v -0.106371 0.064917 0.065930
v -0.099753 0.015379 0.062578
vn 0.8650 0.1145 -0.4885
vn 0.8428 0.4076 -0.3516
vn 0.8059 0.3841 -0.4506
vn 0.8047 0.3516 -0.4784
vn 0.8095 0.3193 -0.4926
vn 0.8177 0.2862 -0.4994
vn 0.8263 0.2520 -0.5037
vn 0.8348 0.2182 -0.5054
vn 0.8449 0.1841 -0.5023
vn 0.8549 0.1488 -0.4970
vn 0.4984 0.1256 -0.8578
vn 0.5024 0.1566 -0.8503
vn 0.5038 0.1864 -0.8435
vn 0.4998 0.2154 -0.8389
vn 0.4924 0.2447 -0.8352
vn 0.4823 0.2724 -0.8326
vn 0.4643 0.2973 -0.8343
vn 0.4318 0.3183 -0.8439
vn 0.3237 0.3055 -0.8955
vn 0.4903 0.0960 -0.8663
vt 0.900000 0.500000
vt 1.000000 0.500000
vt 1.000000 1.000000
vt 0.900000 1.000000
vt 0.000000 0.500000
vt 0.100000 0.500000
vt 0.100000 1.000000
vt 0.000000 1.000000
vt 0.200000 0.500000
vt 0.200000 1.000000
vt 0.300000 0.500000
vt 0.300000 1.000000
vt 0.400000 0.500000
vt 0.400000 1.000000
vt 0.500000 0.500000
vt 0.500000 1.000000
vt 0.600000 0.500000
vt 0.600000 1.000000
vt 0.700000 0.500000
vt 0.700000 1.000000
vt 0.800000 0.500000
vt 0.800000 1.000000
vt 0.800000 0.000000
vt 0.900000 0.000000
vt 0.700000 0.000000
vt 0.600000 0.000000
vt 0.500000 0.000000
vt 0.400000 0.000000
vt 0.300000 0.000000
vt 0.200000 0.000000
vt 0.100000 0.000000
vt 0.000000 0.000000
vt 1.000000 0.000000
s 0
usemtl Matériau
f 165/133/81 156/134/81 136/135/81 146/136/81
f 155/137/82 157/138/82 154/139/82 135/140/82
f 157/138/83 158/141/83 153/142/83 154/139/83
f 158/141/84 159/143/84 152/144/84 153/142/84
f 159/143/85 160/145/85 151/146/85 152/144/85
f 160/145/86 161/147/86 150/148/86 151/146/86
f 161/147/87 162/149/87 149/150/87 150/148/87
f 162/149/88 163/151/88 148/152/88 149/150/88
f 163/151/89 164/153/89 147/154/89 148/152/89
f 164/153/90 165/133/90 146/136/90 147/154/90
f 144/155/91 145/156/91 165/133/91 164/153/91
f 143/157/92 144/155/92 164/153/92 163/151/92
f 142/158/93 143/157/93 163/151/93 162/149/93
f 141/159/94 142/158/94 162/149/94 161/147/94
f 140/160/95 141/159/95 161/147/95 160/145/95
f 139/161/96 140/160/96 160/145/96 159/143/96
f 138/162/97 139/161/97 159/143/97 158/141/97
f 137/163/98 138/162/98 158/141/98 157/138/98
f 133/164/99 137/163/99 157/138/99 155/137/99
f 145/156/100 134/165/100 156/134/100 165/133/100
