# Blender 4.3.2
# www.blender.org
mtllib demi_voute.mtl
o Cube
v -0.125000 0.125000 0.500000
v -0.125000 0.125000 -0.500000
v 0.125000 -0.125000 0.500000
v 0.125000 0.125000 0.500000
v 0.125000 -0.125000 -0.500000
v 0.125000 0.125000 -0.500000
vn 1.0000 -0.0000 -0.0000
vn -0.0000 1.0000 -0.0000
vn -0.7071 -0.7071 -0.0000
vn -0.0000 -0.0000 -1.0000
vn -0.0000 -0.0000 1.0000
vt 0.375000 0.500000
vt 0.625000 0.500000
vt 0.625000 0.750000
vt 0.375000 0.750000
vt 0.875000 0.500000
vt 0.875000 0.750000
vt 0.625000 0.000000
vt 0.625000 0.250000
vt 0.625000 1.000000
s 0
f 5/1/1 6/2/1 4/3/1 3/4/1
f 6/2/2 2/5/2 1/6/2 4/3/2
f 1/7/3 2/8/3 5/1/3 3/4/3
f 5/1/4 2/8/4 6/2/4
f 1/9/5 3/4/5 4/3/5
