# Blender 4.3.2
# www.blender.org
mtllib flaque.mtl
o Plan
v 0.364889 0.000000 -0.985600
v 0.012858 0.000000 -0.585176
v 0.012858 0.000000 -0.507049
v 0.038613 0.000000 -0.706548
v 0.075134 0.000000 -0.748922
v 0.114022 0.000000 -0.760653
v 0.146038 0.000000 -0.746701
v 0.173125 0.000000 -0.758720
v 0.193102 0.000000 -0.788083
v 0.199545 0.000000 -0.819970
v 0.192461 0.000000 -0.854524
v 0.192050 0.000000 -0.895251
v 0.209633 0.000000 -0.935065
v 0.254000 0.000000 -0.962679
v 0.628693 0.000000 -0.963400
v 0.682165 0.000000 -0.948250
v 0.747307 0.000000 -0.920435
v 0.781709 0.000000 -0.890396
v 0.812027 0.000000 -0.846675
v 0.863955 0.000000 -0.792330
v 0.909120 0.000000 -0.774645
v 0.938532 0.000000 -0.745754
v 0.960321 0.000000 -0.691488
v 0.968730 0.000000 -0.619923
v 0.960060 0.000000 -0.522910
v 0.933457 0.000000 -0.477434
v 0.926155 0.000000 -0.431683
v 0.934500 0.000000 -0.371992
v 0.956250 0.000000 -0.324468
v 0.968215 0.000000 -0.284934
v 0.968727 0.000000 -0.233387
v 0.955454 0.000000 -0.211276
v 0.936277 0.000000 -0.192936
v 0.893534 0.000000 -0.183904
v 0.864272 0.000000 -0.167133
v 0.834925 0.000000 -0.140196
v 0.805457 0.000000 -0.107051
v 0.793775 0.000000 -0.078390
v 0.767987 0.000000 -0.053155
v 0.727815 0.000000 -0.037386
v 0.687162 0.000000 -0.035766
v 0.641936 0.000000 -0.046288
v 0.600242 0.000000 -0.075589
v 0.572868 0.000000 -0.105618
v 0.545460 0.000000 -0.121316
v 0.503173 0.000000 -0.130425
v 0.460574 0.000000 -0.133345
v 0.426399 0.000000 -0.119775
v 0.387678 0.000000 -0.103865
v 0.370541 0.000000 -0.080134
v 0.340157 0.000000 -0.062179
v 0.302854 0.000000 -0.056593
v 0.260619 0.000000 -0.072119
v 0.224725 0.000000 -0.090127
v 0.217697 0.000000 -0.124158
v 0.199321 0.000000 -0.164350
v 0.176513 0.000000 -0.189556
v 0.144478 0.000000 -0.221155
v 0.119221 0.000000 -0.237936
v 0.087023 0.000000 -0.250362
v 0.059103 0.000000 -0.273802
v 0.037697 0.000000 -0.330100
v 0.361007 -0.004058 -1.000000
v 0.000000 -0.004058 -0.589366
v 0.000000 -0.004058 -0.509248
v 0.026412 -0.004058 -0.713834
v 0.063864 -0.004058 -0.757288
v 0.103743 -0.004058 -0.769318
v 0.136576 -0.004058 -0.755011
v 0.164353 -0.004058 -0.767335
v 0.184840 -0.004058 -0.797447
v 0.191447 -0.004058 -0.830147
v 0.184182 -0.004058 -0.865582
v 0.183760 -0.004058 -0.907348
v 0.201792 -0.004058 -0.948177
v 0.247290 -0.004058 -0.976495
v 0.631538 -0.004058 -0.977235
v 0.686373 -0.004058 -0.961699
v 0.753175 -0.004058 -0.933174
v 0.788455 -0.004058 -0.902369
v 0.819546 -0.004058 -0.857533
v 0.872798 -0.004058 -0.801802
v 0.919114 -0.004058 -0.783667
v 0.949276 -0.004058 -0.754039
v 0.971621 -0.004058 -0.698389
v 0.980245 -0.004058 -0.625000
v 0.971354 -0.004058 -0.525513
v 0.944072 -0.004058 -0.478878
v 0.936584 -0.004058 -0.431960
v 0.945141 -0.004058 -0.370747
v 0.967446 -0.004058 -0.322011
v 0.979716 -0.004058 -0.281469
v 0.980241 -0.004058 -0.228607
v 0.966630 -0.004058 -0.205933
v 0.946964 -0.004058 -0.187125
v 0.903131 -0.004058 -0.177863
v 0.873122 -0.004058 -0.160665
v 0.843028 -0.004058 -0.133040
v 0.812808 -0.004058 -0.099050
v 0.800829 -0.004058 -0.069659
v 0.774383 -0.004058 -0.043781
v 0.733186 -0.004058 -0.027609
v 0.691497 -0.004058 -0.025948
v 0.645118 -0.004058 -0.036738
v 0.602361 -0.004058 -0.066786
v 0.574288 -0.004058 -0.097581
v 0.546182 -0.004058 -0.113679
v 0.502816 -0.004058 -0.123020
v 0.459132 -0.004058 -0.126015
v 0.424085 -0.004058 -0.112098
v 0.384377 -0.004058 -0.095783
v 0.366802 -0.004058 -0.071447
v 0.335644 -0.004058 -0.053034
v 0.297390 -0.004058 -0.047306
v 0.254078 -0.004058 -0.063228
v 0.217269 -0.004058 -0.081695
v 0.210061 -0.004058 -0.116593
v 0.191217 -0.004058 -0.157811
v 0.167828 -0.004058 -0.183659
v 0.134976 -0.004058 -0.216064
v 0.109075 -0.004058 -0.233273
v 0.076055 -0.004058 -0.246015
v 0.047424 -0.004058 -0.270053
v 0.025472 -0.004058 -0.327787
v 0.058898 0.003299 -0.570171
v 0.058898 0.003299 -0.499177
v 0.082302 0.003299 -0.680463
v 0.115488 0.003299 -0.718968
v 0.150826 0.003299 -0.729628
v 0.179919 0.003299 -0.716950
v 0.204533 0.003299 -0.727871
v 0.222686 0.003299 -0.754554
v 0.228541 0.003299 -0.783529
v 0.222104 0.003299 -0.814929
v 0.221730 0.003299 -0.851937
v 0.237708 0.003299 -0.888117
v 0.278024 0.003299 -0.913210
v 0.378790 0.003299 -0.934038
v 0.618510 0.003299 -0.913865
v 0.667100 0.003299 -0.900098
v 0.726294 0.003299 -0.874823
v 0.757556 0.003299 -0.847526
v 0.785106 0.003299 -0.807796
v 0.832293 0.003299 -0.758413
v 0.873334 0.003299 -0.742343
v 0.900061 0.003299 -0.716089
v 0.919861 0.003299 -0.666777
v 0.927503 0.003299 -0.601746
v 0.919624 0.003299 -0.513590
v 0.895450 0.003299 -0.472266
v 0.888815 0.003299 -0.430691
v 0.896397 0.003299 -0.376450
v 0.916162 0.003299 -0.333265
v 0.927034 0.003299 -0.297340
v 0.927500 0.003299 -0.250499
v 0.915439 0.003299 -0.230407
v 0.898012 0.003299 -0.213741
v 0.859171 0.003299 -0.205533
v 0.832581 0.003299 -0.190294
v 0.805914 0.003299 -0.165816
v 0.779136 0.003299 -0.135697
v 0.768520 0.003299 -0.109653
v 0.745087 0.003299 -0.086722
v 0.708582 0.003299 -0.072392
v 0.671641 0.003299 -0.070920
v 0.630544 0.003299 -0.080481
v 0.592656 0.003299 -0.107107
v 0.567781 0.003299 -0.134395
v 0.542876 0.003299 -0.148659
v 0.504449 0.003299 -0.156937
v 0.465739 0.003299 -0.159591
v 0.434684 0.003299 -0.147259
v 0.399498 0.003299 -0.132802
v 0.383925 0.003299 -0.111237
v 0.356316 0.003299 -0.094921
v 0.322418 0.003299 -0.089846
v 0.284039 0.003299 -0.103955
v 0.251422 0.003299 -0.120318
v 0.245035 0.003299 -0.151242
v 0.228337 0.003299 -0.187765
v 0.207612 0.003299 -0.210669
v 0.178501 0.003299 -0.239384
v 0.155550 0.003299 -0.254633
v 0.126291 0.003299 -0.265924
v 0.100921 0.003299 -0.287224
v 0.081469 0.003299 -0.338383
vn -0.0080 0.9846 -0.1747
vn -0.1882 0.9820 -0.0179
vn -0.1935 0.9810 0.0148
vn -0.1681 0.9824 -0.0810
vn -0.1018 0.9785 -0.1795
vn 0.1041 0.9143 -0.3914
vn 0.0141 0.9675 -0.2525
vn -0.1121 0.9847 -0.1334
vn -0.1771 0.9811 -0.0780
vn -0.2571 0.9664 -0.0052
vn -0.3383 0.9397 0.0500
vn -0.2582 0.9656 -0.0300
vn -0.1498 0.9820 -0.1152
vn -0.0617 0.9856 -0.1572
vn 0.0315 0.9842 -0.1741
vn 0.0586 0.9845 -0.1652
vn 0.0992 0.9830 -0.1546
vn 0.1470 0.9810 -0.1266
vn 0.1407 0.9832 -0.1164
vn 0.0964 0.9852 -0.1417
vn 0.1040 0.9798 -0.1706
vn 0.1602 0.9815 -0.1051
vn 0.1942 0.9799 -0.0457
vn 0.2144 0.9768 0.0008
vn 0.2442 0.9651 0.0946
vn 0.2145 0.9740 0.0729
vn 0.2130 0.9771 0.0018
vn 0.2150 0.9748 -0.0598
vn 0.2330 0.9681 -0.0922
vn 0.2282 0.9727 -0.0417
vn 0.2072 0.9769 0.0518
vn 0.1607 0.9781 0.1321
vn 0.1034 0.9629 0.2492
vn 0.0892 0.9713 0.2206
vn 0.1286 0.9766 0.1727
vn 0.1529 0.9767 0.1503
vn 0.1771 0.9777 0.1126
vn 0.2019 0.9711 0.1269
vn 0.1215 0.9745 0.1888
vn 0.0431 0.9718 0.2320
vn -0.0326 0.9646 0.2616
vn -0.1574 0.9413 0.2985
vn -0.2909 0.9061 0.3072
vn -0.2248 0.9304 0.2897
vn -0.1053 0.9528 0.2846
vn -0.0409 0.9552 0.2930
vn 0.0423 0.9567 0.2880
vn 0.1291 0.9384 0.3206
vn 0.2936 0.8897 0.3495
vn 0.4095 0.8314 0.3756
vn 0.1406 0.9359 0.3230
vn -0.0120 0.9639 0.2659
vn -0.0880 0.9746 0.2060
vn -0.2096 0.9676 0.1407
vn -0.2188 0.9729 0.0747
vn -0.1781 0.9769 0.1180
vn -0.1623 0.9745 0.1550
vn -0.1443 0.9741 0.1740
vn -0.1180 0.9686 0.2190
vn -0.1267 0.9620 0.2418
vn -0.1780 0.9742 0.1385
vn -0.1941 0.9797 0.0505
vn -0.0742 -0.1849 -0.9800
vn -0.9718 -0.2066 -0.1138
vn -0.9740 -0.2187 0.0589
vn -0.8770 -0.1808 -0.4452
vn -0.5741 -0.1877 -0.7970
vn -0.0864 -0.2424 -0.9663
vn 0.2615 0.1866 -0.9470
vn -0.5128 0.5708 -0.6413
vn -0.8875 0.3411 -0.3098
vn -0.9923 0.0208 0.1222
vn -0.9442 -0.3257 0.0494
vn -0.9353 -0.2234 -0.2744
vn -0.7143 -0.1708 -0.6787
vn -0.3715 -0.1744 -0.9119
vn 0.1767 -0.1959 -0.9646
vn 0.3254 -0.2000 -0.9242
vn 0.5130 -0.1922 -0.8366
vn 0.7149 -0.2067 -0.6680
vn 0.7815 0.0711 -0.6198
vn 0.4681 0.4864 -0.7378
vn 0.5546 -0.1988 -0.8080
vn 0.8126 -0.1924 -0.5502
vn 0.9419 -0.2110 -0.2612
vn 0.9723 -0.2309 -0.0353
vn 0.9395 -0.2428 0.2415
vn 0.9024 0.1936 0.3850
vn 0.9829 0.1836 0.0130
vn 0.9408 0.1289 -0.3136
vn 0.9064 -0.2748 -0.3208
vn 0.9643 -0.2383 -0.1153
vn 0.9407 -0.2019 0.2726
vn 0.7717 -0.2205 0.5966
vn 0.5189 -0.2302 0.8233
vn 0.2934 0.0798 0.9526
vn 0.5711 0.0741 0.8175
vn 0.7082 -0.0964 0.6994
vn 0.8402 0.2368 0.4879
vn 0.7901 -0.2347 0.5663
vn 0.5312 -0.2257 0.8166
vn 0.2231 -0.2403 0.9447
vn -0.0569 -0.2697 0.9613
vn -0.3278 -0.3052 0.8941
vn -0.5683 -0.4033 0.7172
vn -0.6621 -0.2461 0.7078
vn -0.3958 -0.0768 0.9151
vn -0.1406 -0.1988 0.9699
vn 0.2017 0.0690 0.9770
vn 0.3472 -0.3869 0.8542
vn 0.6958 -0.3565 0.6235
vn 0.5345 -0.4208 0.7330
vn 0.2501 -0.3122 0.9165
vn -0.1475 -0.2452 0.9582
vn -0.3905 -0.2541 0.8848
vn -0.7543 -0.2071 0.6230
vn -0.9598 0.0252 0.2795
vn -0.8249 0.1922 0.5316
vn -0.7080 -0.1835 0.6820
vn -0.6121 0.0011 0.7907
vn -0.4185 -0.0431 0.9072
vn -0.5361 -0.2617 0.8026
vn -0.8172 -0.2123 0.5358
vn -0.9462 -0.2180 0.2391
vn -0.0370 0.9993 -0.0033
vn -0.0378 0.9993 0.0031
vn -0.0340 0.9993 -0.0162
vn -0.0201 0.9991 -0.0377
vn 0.0384 0.9933 -0.1093
vn -0.0077 0.9989 -0.0465
vn -0.0244 0.9993 -0.0285
vn -0.0360 0.9992 -0.0172
vn -0.0505 0.9987 -0.0049
vn -0.0763 0.9970 0.0134
vn -0.0564 0.9984 -0.0044
vn -0.0313 0.9992 -0.0230
vn -0.0121 0.9994 -0.0311
vn -0.0013 0.9994 -0.0345
vn 0.0061 0.9994 -0.0340
vn 0.0114 0.9994 -0.0320
vn 0.0198 0.9993 -0.0305
vn 0.0294 0.9993 -0.0248
vn 0.0276 0.9993 -0.0232
vn 0.0205 0.9994 -0.0294
vn 0.0205 0.9992 -0.0347
vn 0.0322 0.9993 -0.0210
vn 0.0388 0.9992 -0.0087
vn 0.0428 0.9991 0.0006
vn 0.0513 0.9984 0.0218
vn 0.0451 0.9989 0.0137
vn 0.0440 0.9990 0.0003
vn 0.0445 0.9989 -0.0114
vn 0.0469 0.9987 -0.0192
vn 0.0463 0.9989 -0.0093
vn 0.0426 0.9990 0.0102
vn 0.0319 0.9991 0.0266
vn 0.0203 0.9983 0.0554
vn 0.0198 0.9988 0.0444
vn 0.0265 0.9990 0.0347
vn 0.0304 0.9991 0.0298
vn 0.0364 0.9991 0.0239
vn 0.0420 0.9988 0.0254
vn 0.0246 0.9990 0.0384
vn 0.0082 0.9988 0.0474
vn -0.0078 0.9985 0.0541
vn -0.0387 0.9970 0.0665
vn -0.0740 0.9946 0.0727
vn -0.0444 0.9969 0.0645
vn -0.0210 0.9979 0.0618
vn -0.0084 0.9981 0.0613
vn 0.0073 0.9979 0.0638
vn 0.0271 0.9973 0.0675
vn 0.0419 0.9964 0.0734
vn 0.1617 0.9789 0.1253
vn 0.0362 0.9966 0.0738
vn -0.0008 0.9984 0.0567
vn -0.0172 0.9990 0.0408
vn -0.0461 0.9985 0.0292
vn -0.0443 0.9989 0.0160
vn -0.0368 0.9990 0.0246
vn -0.0321 0.9990 0.0306
vn -0.0296 0.9990 0.0348
vn -0.0250 0.9987 0.0438
vn -0.0254 0.9983 0.0522
vn -0.0362 0.9989 0.0294
vn -0.0383 0.9992 0.0101
vt 0.000000 0.509248
vt 0.025472 0.327787
vt 0.000000 0.589366
vt 0.026412 0.713834
vt 0.063864 0.757288
vt 0.103743 0.769318
vt 0.136576 0.755011
vt 0.164353 0.767335
vt 0.184840 0.797447
vt 0.191447 0.830147
vt 0.184182 0.865582
vt 0.183760 0.907347
vt 0.201792 0.948177
vt 0.247290 0.976495
vt 0.361007 1.000000
vt 0.631538 0.977235
vt 0.686373 0.961698
vt 0.753176 0.933174
vt 0.788455 0.902369
vt 0.819546 0.857533
vt 0.872798 0.801802
vt 0.919114 0.783667
vt 0.949276 0.754039
vt 0.971621 0.698389
vt 0.980245 0.625000
vt 0.971354 0.525513
vt 0.944072 0.478878
vt 0.936584 0.431960
vt 0.945141 0.370747
vt 0.967446 0.322011
vt 0.979716 0.281469
vt 0.980241 0.228607
vt 0.966630 0.205933
vt 0.946964 0.187125
vt 0.903131 0.177863
vt 0.873122 0.160665
vt 0.843028 0.133040
vt 0.812808 0.099050
vt 0.800829 0.069659
vt 0.774383 0.043781
vt 0.733186 0.027609
vt 0.691497 0.025948
vt 0.645118 0.036738
vt 0.602361 0.066786
vt 0.574288 0.097581
vt 0.546182 0.113679
vt 0.502816 0.123020
vt 0.459132 0.126015
vt 0.424085 0.112098
vt 0.384377 0.095783
vt 0.366802 0.071447
vt 0.335644 0.053034
vt 0.297390 0.047306
vt 0.254078 0.063228
vt 0.217269 0.081695
vt 0.210061 0.116593
vt 0.191217 0.157811
vt 0.167828 0.183659
vt 0.134976 0.216064
vt 0.109075 0.233273
vt 0.076055 0.246015
vt 0.047424 0.270053
s 1
f 3/1/3 62/2/62 186/2/186 126/1/126
f 65/1/65 64/3/64 66/4/66 67/5/67 68/6/68 69/7/69 70/8/70 71/9/71 72/10/72 73/11/73 74/12/74 75/13/75 76/14/76 63/15/63 77/16/77 78/17/78 79/18/79 80/19/80 81/20/81 82/21/82 83/22/83 84/23/84 85/24/85 86/25/86 87/26/87 88/27/88 89/28/89 90/29/90 91/30/91 92/31/92 93/32/93 94/33/94 95/34/95 96/35/96 97/36/97 98/37/98 99/38/99 100/39/100 101/40/101 102/41/102 103/42/103 104/43/104 105/44/105 106/45/106 107/46/107 108/47/108 109/48/109 110/49/110 111/50/111 112/51/112 113/52/113 114/53/114 115/54/115 116/55/116 117/56/117 118/57/118 119/58/119 120/59/120 121/60/121 122/61/122 123/62/123 124/2/124
f 3/1/3 2/3/2 64/3/64 65/1/65
f 2/3/2 4/4/4 66/4/66 64/3/64
f 4/4/4 5/5/5 67/5/67 66/4/66
f 5/5/5 6/6/6 68/6/68 67/5/67
f 6/6/6 7/7/7 69/7/69 68/6/68
f 7/7/7 8/8/8 70/8/70 69/7/69
f 8/8/8 9/9/9 71/9/71 70/8/70
f 9/9/9 10/10/10 72/10/72 71/9/71
f 10/10/10 11/11/11 73/11/73 72/10/72
f 11/11/11 12/12/12 74/12/74 73/11/73
f 12/12/12 13/13/13 75/13/75 74/12/74
f 13/13/13 14/14/14 76/14/76 75/13/75
f 14/14/14 1/15/1 63/15/63 76/14/76
f 1/15/1 15/16/15 77/16/77 63/15/63
f 15/16/15 16/17/16 78/17/78 77/16/77
f 16/17/16 17/18/17 79/18/79 78/17/78
f 17/18/17 18/19/18 80/19/80 79/18/79
f 18/19/18 19/20/19 81/20/81 80/19/80
f 19/20/19 20/21/20 82/21/82 81/20/81
f 20/21/20 21/22/21 83/22/83 82/21/82
f 21/22/21 22/23/22 84/23/84 83/22/83
f 22/23/22 23/24/23 85/24/85 84/23/84
f 23/24/23 24/25/24 86/25/86 85/24/85
f 24/25/24 25/26/25 87/26/87 86/25/86
f 25/26/25 26/27/26 88/27/88 87/26/87
f 26/27/26 27/28/27 89/28/89 88/27/88
f 27/28/27 28/29/28 90/29/90 89/28/89
f 28/29/28 29/30/29 91/30/91 90/29/90
f 29/30/29 30/31/30 92/31/92 91/30/91
f 30/31/30 31/32/31 93/32/93 92/31/92
f 31/32/31 32/33/32 94/33/94 93/32/93
f 32/33/32 33/34/33 95/34/95 94/33/94
f 33/34/33 34/35/34 96/35/96 95/34/95
f 34/35/34 35/36/35 97/36/97 96/35/96
f 35/36/35 36/37/36 98/37/98 97/36/97
f 36/37/36 37/38/37 99/38/99 98/37/98
f 37/38/37 38/39/38 100/39/100 99/38/99
f 38/39/38 39/40/39 101/40/101 100/39/100
f 39/40/39 40/41/40 102/41/102 101/40/101
f 40/41/40 41/42/41 103/42/103 102/41/102
f 41/42/41 42/43/42 104/43/104 103/42/103
f 42/43/42 43/44/43 105/44/105 104/43/104
f 43/44/43 44/45/44 106/45/106 105/44/105
f 44/45/44 45/46/45 107/46/107 106/45/106
f 45/46/45 46/47/46 108/47/108 107/46/107
f 46/47/46 47/48/47 109/48/109 108/47/108
f 47/48/47 48/49/48 110/49/110 109/48/109
f 48/49/48 49/50/49 111/50/111 110/49/110
f 49/50/49 50/51/50 112/51/112 111/50/111
f 50/51/50 51/52/51 113/52/113 112/51/112
f 51/52/51 52/53/52 114/53/114 113/52/113
f 52/53/52 53/54/53 115/54/115 114/53/114
f 53/54/53 54/55/54 116/55/116 115/54/115
f 54/55/54 55/56/55 117/56/117 116/55/116
f 55/56/55 56/57/56 118/57/118 117/56/117
f 56/57/56 57/58/57 119/58/119 118/57/118
f 57/58/57 58/59/58 120/59/120 119/58/119
f 58/59/58 59/60/59 121/60/121 120/59/120
f 59/60/59 60/61/60 122/61/122 121/60/121
f 60/61/60 61/62/61 123/62/123 122/61/122
f 61/62/61 62/2/62 124/2/124 123/62/123
f 62/2/62 3/1/3 65/1/65 124/2/124
f 126/1/126 186/2/186 185/62/185 184/61/184 183/60/183 182/59/182 181/58/181 180/57/180 179/56/179 178/55/178 177/54/177 176/53/176 175/52/175 174/51/174 173/50/173 172/49/172 171/48/171 170/47/170 169/46/169 168/45/168 167/44/167 166/43/166 165/42/165 164/41/164 163/40/163 162/39/162 161/38/161 160/37/160 159/36/159 158/35/158 157/34/157 156/33/156 155/32/155 154/31/154 153/30/153 152/29/152 151/28/151 150/27/150 149/26/149 148/25/148 147/24/147 146/23/146 145/22/145 144/21/144 143/20/143 142/19/142 141/18/141 140/17/140 139/16/139 138/15/138 137/14/137 136/13/136 135/12/135 134/11/134 133/10/133 132/9/132 131/8/131 130/7/130 129/6/129 128/5/128 127/4/127 125/3/125
f 37/38/37 36/37/36 160/37/160 161/38/161
f 12/12/12 11/11/11 134/11/134 135/12/135
f 38/39/38 37/38/37 161/38/161 162/39/162
f 13/13/13 12/12/12 135/12/135 136/13/136
f 39/40/39 38/39/38 162/39/162 163/40/163
f 14/14/14 13/13/13 136/13/136 137/14/137
f 40/41/40 39/40/39 163/40/163 164/41/164
f 1/15/1 14/14/14 137/14/137 138/15/138
f 41/42/41 40/41/40 164/41/164 165/42/165
f 15/16/15 1/15/1 138/15/138 139/16/139
f 42/43/42 41/42/41 165/42/165 166/43/166
f 16/17/16 15/16/15 139/16/139 140/17/140
f 43/44/43 42/43/42 166/43/166 167/44/167
f 17/18/17 16/17/16 140/17/140 141/18/141
f 44/45/44 43/44/43 167/44/167 168/45/168
f 18/19/18 17/18/17 141/18/141 142/19/142
f 45/46/45 44/45/44 168/45/168 169/46/169
f 19/20/19 18/19/18 142/19/142 143/20/143
f 46/47/46 45/46/45 169/46/169 170/47/170
f 20/21/20 19/20/19 143/20/143 144/21/144
f 47/48/47 46/47/46 170/47/170 171/48/171
f 21/22/21 20/21/20 144/21/144 145/22/145
f 48/49/48 47/48/47 171/48/171 172/49/172
f 22/23/22 21/22/21 145/22/145 146/23/146
f 49/50/49 48/49/48 172/49/172 173/50/173
f 23/24/23 22/23/22 146/23/146 147/24/147
f 50/51/50 49/50/49 173/50/173 174/51/174
f 24/25/24 23/24/23 147/24/147 148/25/148
f 51/52/51 50/51/50 174/51/174 175/52/175
f 25/26/25 24/25/24 148/25/148 149/26/149
f 52/53/52 51/52/51 175/52/175 176/53/176
f 26/27/26 25/26/25 149/26/149 150/27/150
f 53/54/53 52/53/52 176/53/176 177/54/177
f 27/28/27 26/27/26 150/27/150 151/28/151
f 54/55/54 53/54/53 177/54/177 178/55/178
f 28/29/28 27/28/27 151/28/151 152/29/152
f 2/3/2 3/1/3 126/1/126 125/3/125
f 55/56/55 54/55/54 178/55/178 179/56/179
f 29/30/29 28/29/28 152/29/152 153/30/153
f 4/4/4 2/3/2 125/3/125 127/4/127
f 56/57/56 55/56/55 179/56/179 180/57/180
f 30/31/30 29/30/29 153/30/153 154/31/154
f 5/5/5 4/4/4 127/4/127 128/5/128
f 57/58/57 56/57/56 180/57/180 181/58/181
f 31/32/31 30/31/30 154/31/154 155/32/155
f 6/6/6 5/5/5 128/5/128 129/6/129
f 58/59/58 57/58/57 181/58/181 182/59/182
f 32/33/32 31/32/31 155/32/155 156/33/156
f 7/7/7 6/6/6 129/6/129 130/7/130
f 59/60/59 58/59/58 182/59/182 183/60/183
f 33/34/33 32/33/32 156/33/156 157/34/157
f 8/8/8 7/7/7 130/7/130 131/8/131
f 60/61/60 59/60/59 183/60/183 184/61/184
f 34/35/34 33/34/33 157/34/157 158/35/158
f 9/9/9 8/8/8 131/8/131 132/9/132
f 61/62/61 60/61/60 184/61/184 185/62/185
f 35/36/35 34/35/34 158/35/158 159/36/159
f 10/10/10 9/9/9 132/9/132 133/10/133
f 62/2/62 61/62/61 185/62/185 186/2/186
f 36/37/36 35/36/35 159/36/159 160/37/160
f 11/11/11 10/10/10 133/10/133 134/11/134
