# Blender 4.3.2
# www.blender.org
mtllib Plantemed1.mtl
o Plan
v -0.224848 0.147208 -0.001033
v -0.226789 0.151254 -0.000679
v 0.001332 0.013964 0.012531
v 0.004472 0.016242 0.010249
v -0.224867 0.147250 0.001025
v -0.226798 0.151302 0.000679
v 0.001332 0.013964 -0.012531
v 0.004472 0.016242 -0.010249
v -0.190938 0.159855 0.040814
v -0.192077 0.164281 0.041223
v -0.159498 0.156966 0.068064
v -0.159003 0.161458 0.068742
v -0.131802 0.144887 0.077476
v -0.130252 0.149006 0.078498
v -0.105617 0.130020 0.082769
v -0.103716 0.133933 0.083926
v -0.079907 0.114323 0.094486
v -0.077773 0.118157 0.095523
v -0.055900 0.097046 0.114864
v -0.053294 0.100646 0.115655
v -0.033355 0.076267 0.124688
v -0.029917 0.079196 0.125339
v -0.018526 0.052584 0.107639
v -0.014226 0.054128 0.108085
v -0.007709 0.029745 0.031143
v -0.003338 0.031448 0.029979
v -0.007709 0.029745 -0.031143
v -0.003338 0.031448 -0.029979
v -0.018526 0.052584 -0.107639
v -0.014226 0.054128 -0.108085
v -0.033355 0.076267 -0.124688
v -0.029917 0.079196 -0.125339
v -0.055900 0.097046 -0.114864
v -0.053294 0.100646 -0.115655
v -0.079907 0.114323 -0.094486
v -0.077773 0.118157 -0.095523
v -0.105617 0.130020 -0.082769
v -0.103716 0.133933 -0.083926
v -0.131802 0.144887 -0.077476
v -0.130252 0.149006 -0.078498
v -0.159498 0.156966 -0.068064
v -0.159003 0.161458 -0.068742
v -0.190944 0.159854 -0.040819
v -0.192077 0.164281 -0.041223
v -0.225414 0.146949 -0.000002
v -0.226751 0.151305 0.000000
v 0.000090 -0.007184 0.000000
v 0.004430 -0.005854 0.000000
v -0.197155 0.155645 -0.000001
v -0.197728 0.160236 0.000000
v -0.160638 0.155239 -0.000000
v -0.159866 0.159819 0.000000
v -0.130986 0.145468 -0.000000
v -0.129272 0.149738 0.000000
v -0.103786 0.132143 0.000000
v -0.101497 0.136131 0.000000
v -0.079212 0.115718 -0.000000
v -0.076406 0.119346 0.000000
v -0.057232 0.095974 0.000000
v -0.054069 0.099297 0.000000
v -0.036856 0.074237 0.000000
v -0.033391 0.077286 -0.000000
v -0.019243 0.049915 -0.000000
v -0.015224 0.052300 0.000000
v -0.006192 0.028068 0.000000
v -0.010518 0.026616 -0.000000
v 0.000481 -0.007718 -0.005031
v 0.004451 -0.005828 -0.003502
v -0.196285 0.164023 -0.020612
v -0.195349 0.159505 -0.020724
v -0.160232 0.166731 -0.034371
v -0.160953 0.162156 -0.034410
v -0.129338 0.159123 -0.039249
v -0.130986 0.154817 -0.039206
v -0.101291 0.145921 -0.041963
v -0.103450 0.141828 -0.041837
v -0.076232 0.131109 -0.047761
v -0.078773 0.127259 -0.047655
v -0.052776 0.111737 -0.057827
v -0.055677 0.108197 -0.057807
v -0.029200 0.090877 -0.062669
v -0.032673 0.087882 -0.062504
v -0.009718 0.063955 -0.054042
v -0.013936 0.062053 -0.054162
v -0.009136 0.028055 -0.012189
v -0.004765 0.029758 -0.011025
v -0.225129 0.147066 0.000158
v -0.226774 0.151298 0.000340
v -0.225117 0.147046 -0.000165
v -0.226770 0.151277 -0.000340
v 0.000481 -0.007718 0.005031
v 0.004451 -0.005828 0.003502
v -0.196285 0.164023 0.020612
v -0.195343 0.159505 0.020720
v -0.160232 0.166731 0.034371
v -0.160953 0.162156 0.034410
v -0.129338 0.159123 0.039249
v -0.130986 0.154817 0.039206
v -0.101291 0.145921 0.041963
v -0.103450 0.141828 0.041837
v -0.076232 0.131109 0.047761
v -0.078773 0.127259 0.047655
v -0.052776 0.111737 0.057827
v -0.055677 0.108197 0.057807
v -0.029200 0.090877 0.062669
v -0.032673 0.087882 0.062504
v -0.009718 0.063955 0.054042
v -0.013936 0.062053 0.054162
v -0.009136 0.028055 0.012189
v -0.004765 0.029758 0.011025
v -0.225462 0.147050 -0.000532
v -0.226762 0.151302 0.000170
v 0.000165 -0.007124 -0.002329
v 0.004441 -0.005841 -0.001751
v -0.196353 0.157696 -0.011104
v -0.197006 0.162130 -0.010306
v -0.160717 0.158870 -0.018096
v -0.160049 0.163275 -0.017185
v -0.130929 0.150322 -0.020561
v -0.129305 0.154430 -0.019624
v -0.103586 0.137193 -0.021900
v -0.101394 0.141026 -0.020981
v -0.079031 0.121720 -0.024731
v -0.076319 0.125227 -0.023880
v -0.056495 0.102821 -0.029752
v -0.053423 0.106005 -0.028913
v -0.034587 0.082525 -0.032188
v -0.031295 0.085489 -0.031334
v -0.016415 0.059161 -0.027857
v -0.012471 0.061303 -0.027021
v -0.005478 0.028913 -0.005512
v -0.009695 0.027507 -0.006255
v 0.000165 -0.007124 0.002329
v 0.004441 -0.005841 0.001751
v -0.196351 0.157695 0.011102
v -0.197006 0.162130 0.010306
v -0.160717 0.158870 0.018096
v -0.160049 0.163275 0.017185
v -0.130929 0.150322 0.020561
v -0.129305 0.154430 0.019624
v -0.103586 0.137193 0.021900
v -0.101394 0.141026 0.020981
v -0.079031 0.121720 0.024731
v -0.076319 0.125227 0.023880
v -0.056495 0.102821 0.029752
v -0.053423 0.106005 0.028913
v -0.034587 0.082525 0.032188
v -0.031295 0.085489 0.031334
v -0.016415 0.059161 0.027857
v -0.012471 0.061303 0.027021
v -0.005478 0.028913 0.005512
v -0.009695 0.027507 0.006255
v -0.225457 0.147039 0.000527
v -0.226760 0.151291 -0.000170
vn 0.4348 -0.4920 0.7542
vn 0.0900 0.4496 0.8887
vn 0.0869 -0.5604 0.8236
vn 0.9818 0.0890 0.1677
vn 0.4418 -0.4826 -0.7562
vn 0.0445 0.4445 -0.8947
vn 0.0869 -0.5604 -0.8236
vn 0.9818 0.0890 -0.1677
vn -0.4150 -0.7855 0.4591
vn -0.5722 0.5856 0.5741
vn -0.4906 -0.6788 0.5465
vn -0.2493 0.6236 0.7409
vn -0.4744 -0.7020 0.5312
vn 0.0314 0.5593 0.8284
vn -0.5546 -0.7008 0.4487
vn 0.0657 0.5666 0.8214
vn -0.6953 -0.5788 0.4261
vn 0.0193 0.6660 0.7457
vn -0.7238 -0.4167 0.5500
vn 0.1005 0.6417 0.7604
vn -0.4871 -0.5372 0.6886
vn 0.4566 0.2780 0.8452
vn -0.3274 -0.8475 0.4179
vn 0.7982 -0.2634 0.5417
vn -0.4913 -0.7696 0.4078
vn 0.9277 -0.2521 0.2754
vn -0.4913 -0.7696 -0.4078
vn 0.9277 -0.2521 -0.2754
vn -0.3274 -0.8475 -0.4179
vn 0.7982 -0.2634 -0.5417
vn -0.4871 -0.5372 -0.6886
vn 0.4566 0.2780 -0.8452
vn -0.7238 -0.4167 -0.5500
vn 0.1005 0.6417 -0.7604
vn -0.6953 -0.5788 -0.4261
vn 0.0193 0.6660 -0.7457
vn -0.5546 -0.7008 -0.4487
vn 0.0657 0.5666 -0.8214
vn -0.4744 -0.7020 -0.5312
vn 0.0314 0.5593 -0.8284
vn -0.4906 -0.6786 -0.5466
vn -0.2493 0.6238 -0.7408
vn -0.4157 -0.7849 -0.4595
vn -0.5719 0.5863 -0.5737
vn -0.4032 -0.9151 -0.0005
vn -0.8712 0.4909 0.0016
vn -0.4724 -0.8814 -0.0000
vn 0.8788 -0.4772 -0.0000
vn 0.1539 -0.9881 -0.0003
vn -0.1537 0.9881 0.0003
vn -0.1602 -0.9871 -0.0000
vn 0.1608 0.9870 -0.0000
vn -0.3762 -0.9265 -0.0000
vn 0.3764 0.9264 -0.0000
vn -0.5014 -0.8652 -0.0000
vn 0.5017 0.8650 -0.0000
vn -0.6168 -0.7871 -0.0000
vn 0.6170 0.7869 -0.0000
vn -0.6914 -0.7225 -0.0000
vn 0.6912 0.7226 -0.0000
vn -0.7548 -0.6560 -0.0000
vn 0.7545 0.6563 -0.0000
vn -0.8856 -0.4644 -0.0000
vn 0.8856 0.4644 -0.0000
vn 0.9486 0.3165 -0.0000
vn -0.9484 -0.3171 -0.0000
vn -0.2288 -0.8616 -0.4532
vn 0.8893 -0.4095 -0.2035
vn -0.2155 0.9757 0.0407
vn 0.2161 -0.9755 -0.0400
vn 0.1189 0.9927 0.0203
vn -0.1184 -0.9928 -0.0206
vn 0.3540 0.9352 -0.0120
vn -0.3541 -0.9351 0.0120
vn 0.4676 0.8838 -0.0191
vn -0.4677 -0.8837 0.0188
vn 0.5512 0.8342 -0.0190
vn -0.5510 -0.8343 0.0191
vn 0.6254 0.7801 -0.0163
vn -0.6246 -0.7807 0.0167
vn 0.7452 0.6667 -0.0118
vn -0.7449 -0.6671 0.0114
vn 0.9165 0.3999 0.0057
vn -0.9171 -0.3986 -0.0050
vn -0.9129 -0.3456 -0.2172
vn 0.9071 0.3523 0.2303
vn 0.8727 -0.4415 -0.2085
vn 0.3626 0.9083 -0.2087
vn 0.8750 -0.4387 0.2048
vn 0.3583 0.9098 0.2093
vn -0.2288 -0.8616 0.4532
vn 0.8893 -0.4095 0.2035
vn -0.2165 0.9755 -0.0398
vn 0.2172 -0.9753 0.0391
vn 0.1189 0.9927 -0.0203
vn -0.1184 -0.9928 0.0206
vn 0.3540 0.9352 0.0120
vn -0.3541 -0.9351 -0.0120
vn 0.4676 0.8838 0.0191
vn -0.4677 -0.8837 -0.0188
vn 0.5512 0.8342 0.0190
vn -0.5510 -0.8343 -0.0191
vn 0.6254 0.7801 0.0163
vn -0.6246 -0.7807 -0.0167
vn 0.7452 0.6667 0.0118
vn -0.7449 -0.6671 -0.0114
vn 0.9165 0.3999 -0.0057
vn -0.9171 -0.3986 0.0050
vn -0.9129 -0.3456 0.2172
vn 0.9071 0.3523 -0.2303
vn 0.2335 -0.9340 -0.2706
vn -0.2287 0.9735 0.0062
vn -0.5001 -0.8652 -0.0355
vn 0.8769 -0.4620 0.1326
vn 0.1452 -0.9741 -0.1736
vn -0.1431 0.9740 0.1755
vn -0.1474 -0.9684 -0.2010
vn 0.1467 0.9687 0.2004
vn -0.3598 -0.9096 -0.2075
vn 0.3597 0.9097 0.2074
vn -0.4862 -0.8498 -0.2038
vn 0.4861 0.8498 0.2039
vn -0.6008 -0.7769 -0.1885
vn 0.6008 0.7769 0.1884
vn -0.6729 -0.7176 -0.1796
vn 0.6728 0.7178 0.1794
vn -0.7291 -0.6588 -0.1854
vn 0.7291 0.6588 0.1853
vn -0.8664 -0.4676 -0.1748
vn 0.8625 0.4732 0.1795
vn 0.9396 0.3052 0.1548
vn -0.9419 -0.3035 -0.1441
vn -0.5001 -0.8652 0.0355
vn 0.8769 -0.4620 -0.1326
vn 0.1457 -0.9741 0.1730
vn -0.1435 0.9741 -0.1750
vn -0.1474 -0.9684 0.2010
vn 0.1467 0.9687 -0.2004
vn -0.3598 -0.9096 0.2075
vn 0.3597 0.9097 -0.2074
vn -0.4862 -0.8498 0.2038
vn 0.4861 0.8498 -0.2039
vn -0.6008 -0.7769 0.1885
vn 0.6008 0.7769 -0.1884
vn -0.6729 -0.7176 0.1796
vn 0.6728 0.7178 -0.1794
vn -0.7291 -0.6588 0.1854
vn 0.7291 0.6588 -0.1853
vn -0.8664 -0.4676 0.1748
vn 0.8625 0.4732 -0.1795
vn 0.9396 0.3052 -0.1548
vn -0.9419 -0.3035 0.1441
vn 0.2435 -0.9310 0.2720
vn -0.2670 0.9636 -0.0127
vt 0.000000 0.250000
vt 0.000000 0.000000
vt 0.900000 0.000000
vt 1.000000 0.000000
vt 1.000000 0.750000
vt 1.000000 1.000000
vt 0.100000 1.000000
vt 0.000000 1.000000
vt 0.100000 0.000000
vt 0.200000 0.000000
vt 0.300000 0.000000
vt 0.400000 0.000000
vt 0.500000 0.000000
vt 0.600000 0.000000
vt 0.700000 0.000000
vt 0.800000 0.000000
vt 0.900000 1.000000
vt 0.800000 1.000000
vt 0.700000 1.000000
vt 0.600000 1.000000
vt 0.500000 1.000000
vt 0.400000 1.000000
vt 0.300000 1.000000
vt 0.200000 1.000000
vt 0.000000 0.625000
vt 0.000000 0.500000
vt 1.000000 0.375000
vt 1.000000 0.500000
vt 1.000000 0.625000
vt 0.000000 0.750000
vt 0.000000 0.375000
vt 1.000000 0.250000
vt 0.900000 0.750000
vt 0.100000 0.750000
vt 0.200000 0.750000
vt 0.300000 0.750000
vt 0.400000 0.750000
vt 0.500000 0.750000
vt 0.600000 0.750000
vt 0.700000 0.750000
vt 0.800000 0.750000
vt 0.800000 0.500000
vt 0.800000 0.375000
vt 0.900000 0.375000
vt 0.900000 0.500000
vt 0.700000 0.500000
vt 0.700000 0.375000
vt 0.600000 0.500000
vt 0.600000 0.375000
vt 0.500000 0.500000
vt 0.500000 0.375000
vt 0.400000 0.500000
vt 0.400000 0.375000
vt 0.300000 0.500000
vt 0.300000 0.375000
vt 0.200000 0.500000
vt 0.200000 0.375000
vt 0.100000 0.500000
vt 0.100000 0.375000
vt 0.800000 0.625000
vt 0.900000 0.625000
vt 0.700000 0.625000
vt 0.600000 0.625000
vt 0.500000 0.625000
vt 0.400000 0.625000
vt 0.300000 0.625000
vt 0.200000 0.625000
vt 0.100000 0.625000
vt 0.900000 0.250000
vt 0.100000 0.250000
vt 0.200000 0.250000
vt 0.300000 0.250000
vt 0.400000 0.250000
vt 0.500000 0.250000
vt 0.600000 0.250000
vt 0.700000 0.250000
vt 0.800000 0.250000
s 1
usemtl vert_fonce
f 89/1/89 1/2/1 2/2/2 90/1/90
f 25/3/25 3/4/3 4/4/4 26/3/26
f 67/5/67 7/6/7 8/6/8 68/5/68
f 43/7/43 5/8/5 6/8/6 44/7/44
f 1/2/1 9/9/9 10/9/10 2/2/2
f 9/9/9 11/10/11 12/10/12 10/9/10
f 11/10/11 13/11/13 14/11/14 12/10/12
f 13/11/13 15/12/15 16/12/16 14/11/14
f 15/12/15 17/13/17 18/13/18 16/12/16
f 17/13/17 19/14/19 20/14/20 18/13/18
f 19/14/19 21/15/21 22/15/22 20/14/20
f 21/15/21 23/16/23 24/16/24 22/15/22
f 23/16/23 25/3/25 26/3/26 24/16/24
f 7/6/7 27/17/27 28/17/28 8/6/8
f 27/17/27 29/18/29 30/18/30 28/17/28
f 29/18/29 31/19/31 32/19/32 30/18/30
f 31/19/31 33/20/33 34/20/34 32/19/32
f 33/20/33 35/21/35 36/21/36 34/20/34
f 35/21/35 37/22/37 38/22/38 36/21/36
f 37/22/37 39/23/39 40/23/40 38/22/38
f 39/23/39 41/24/41 42/24/42 40/23/40
f 41/24/41 43/7/43 44/7/44 42/24/42
f 111/25/111 45/26/45 46/26/46 112/25/112
f 133/27/133 47/28/47 48/28/48 134/27/134
f 113/29/113 67/5/67 68/5/68 114/29/114
f 5/8/5 87/30/87 88/30/88 6/8/6
f 3/4/3 91/32/91 92/32/92 4/4/4
f 47/28/47 113/29/113 114/29/114 48/28/48
f 91/32/91 133/27/133 134/27/134 92/32/92
f 45/26/45 153/31/153 154/31/154 46/26/46
f 28/17/28 86/33/86 68/5/68 8/6/8
f 27/17/27 7/6/7 67/5/67 85/33/85
f 6/8/6 88/30/88 69/34/69 44/7/44
f 5/8/5 43/7/43 70/34/70 87/30/87
f 44/7/44 69/34/69 71/35/71 42/24/42
f 43/7/43 41/24/41 72/35/72 70/34/70
f 42/24/42 71/35/71 73/36/73 40/23/40
f 41/24/41 39/23/39 74/36/74 72/35/72
f 40/23/40 73/36/73 75/37/75 38/22/38
f 39/23/39 37/22/37 76/37/76 74/36/74
f 38/22/38 75/37/75 77/38/77 36/21/36
f 37/22/37 35/21/35 78/38/78 76/37/76
f 36/21/36 77/38/77 79/39/79 34/20/34
f 35/21/35 33/20/33 80/39/80 78/38/78
f 34/20/34 79/39/79 81/40/81 32/19/32
f 33/20/33 31/19/31 82/40/82 80/39/80
f 32/19/32 81/40/81 83/41/83 30/18/30
f 31/19/31 29/18/29 84/41/84 82/40/82
f 30/18/30 83/41/83 86/33/86 28/17/28
f 29/18/29 27/17/27 85/33/85 84/41/84
f 64/42/64 150/43/150 151/44/151 65/45/65
f 63/42/63 66/45/66 152/44/152 149/43/149
f 62/46/62 148/47/148 150/43/150 64/42/64
f 61/46/61 63/42/63 149/43/149 147/47/147
f 60/48/60 146/49/146 148/47/148 62/46/62
f 59/48/59 61/46/61 147/47/147 145/49/145
f 58/50/58 144/51/144 146/49/146 60/48/60
f 57/50/57 59/48/59 145/49/145 143/51/143
f 56/52/56 142/53/142 144/51/144 58/50/58
f 55/52/55 57/50/57 143/51/143 141/53/141
f 54/54/54 140/55/140 142/53/142 56/52/56
f 53/54/53 55/52/55 141/53/141 139/55/139
f 52/56/52 138/57/138 140/55/140 54/54/54
f 51/56/51 53/54/53 139/55/139 137/57/137
f 50/58/50 136/59/136 138/57/138 52/56/52
f 49/58/49 51/56/51 137/57/137 135/59/135
f 46/26/46 154/31/154 136/59/136 50/58/50
f 45/26/45 49/58/49 135/59/135 153/31/153
f 65/45/65 151/44/151 134/27/134 48/28/48
f 66/45/66 47/28/47 133/27/133 152/44/152
f 86/33/86 131/61/131 114/29/114 68/5/68
f 85/33/85 67/5/67 113/29/113 132/61/132
f 110/69/110 26/3/26 4/4/4 92/32/92
f 109/69/109 91/32/91 3/4/3 25/3/25
f 90/1/90 2/2/2 10/9/10 93/70/93
f 89/1/89 94/70/94 9/9/9 1/2/1
f 93/70/93 10/9/10 12/10/12 95/71/95
f 94/70/94 96/71/96 11/10/11 9/9/9
f 95/71/95 12/10/12 14/11/14 97/72/97
f 96/71/96 98/72/98 13/11/13 11/10/11
f 97/72/97 14/11/14 16/12/16 99/73/99
f 98/72/98 100/73/100 15/12/15 13/11/13
f 99/73/99 16/12/16 18/13/18 101/74/101
f 100/73/100 102/74/102 17/13/17 15/12/15
f 101/74/101 18/13/18 20/14/20 103/75/103
f 102/74/102 104/75/104 19/14/19 17/13/17
f 103/75/103 20/14/20 22/15/22 105/76/105
f 104/75/104 106/76/106 21/15/21 19/14/19
f 105/76/105 22/15/22 24/16/24 107/77/107
f 106/76/106 108/77/108 23/16/23 21/15/21
f 107/77/107 24/16/24 26/3/26 110/69/110
f 108/77/108 109/69/109 25/3/25 23/16/23
f 131/61/131 65/45/65 48/28/48 114/29/114
f 132/61/132 113/29/113 47/28/47 66/45/66
f 112/25/112 46/26/46 50/58/50 116/68/116
f 111/25/111 115/68/115 49/58/49 45/26/45
f 116/68/116 50/58/50 52/56/52 118/67/118
f 115/68/115 117/67/117 51/56/51 49/58/49
f 118/67/118 52/56/52 54/54/54 120/66/120
f 117/67/117 119/66/119 53/54/53 51/56/51
f 120/66/120 54/54/54 56/52/56 122/65/122
f 119/66/119 121/65/121 55/52/55 53/54/53
f 122/65/122 56/52/56 58/50/58 124/64/124
f 121/65/121 123/64/123 57/50/57 55/52/55
f 124/64/124 58/50/58 60/48/60 126/63/126
f 123/64/123 125/63/125 59/48/59 57/50/57
f 126/63/126 60/48/60 62/46/62 128/62/128
f 125/63/125 127/62/127 61/46/61 59/48/59
f 128/62/128 62/46/62 64/42/64 130/60/130
f 127/62/127 129/60/129 63/42/63 61/46/61
f 130/60/130 64/42/64 65/45/65 131/61/131
f 129/60/129 132/61/132 66/45/66 63/42/63
f 151/44/151 110/69/110 92/32/92 134/27/134
f 152/44/152 133/27/133 91/32/91 109/69/109
usemtl vert_pale
f 153/31/153 89/1/89 90/1/90 154/31/154
f 87/30/87 111/25/111 112/25/112 88/30/88
f 83/41/83 130/60/130 131/61/131 86/33/86
f 84/41/84 85/33/85 132/61/132 129/60/129
f 81/40/81 128/62/128 130/60/130 83/41/83
f 82/40/82 84/41/84 129/60/129 127/62/127
f 79/39/79 126/63/126 128/62/128 81/40/81
f 80/39/80 82/40/82 127/62/127 125/63/125
f 77/38/77 124/64/124 126/63/126 79/39/79
f 78/38/78 80/39/80 125/63/125 123/64/123
f 75/37/75 122/65/122 124/64/124 77/38/77
f 76/37/76 78/38/78 123/64/123 121/65/121
f 73/36/73 120/66/120 122/65/122 75/37/75
f 74/36/74 76/37/76 121/65/121 119/66/119
f 71/35/71 118/67/118 120/66/120 73/36/73
f 72/35/72 74/36/74 119/66/119 117/67/117
f 69/34/69 116/68/116 118/67/118 71/35/71
f 70/34/70 72/35/72 117/67/117 115/68/115
f 88/30/88 112/25/112 116/68/116 69/34/69
f 87/30/87 70/34/70 115/68/115 111/25/111
f 154/31/154 90/1/90 93/70/93 136/59/136
f 153/31/153 135/59/135 94/70/94 89/1/89
f 136/59/136 93/70/93 95/71/95 138/57/138
f 135/59/135 137/57/137 96/71/96 94/70/94
f 138/57/138 95/71/95 97/72/97 140/55/140
f 137/57/137 139/55/139 98/72/98 96/71/96
f 140/55/140 97/72/97 99/73/99 142/53/142
f 139/55/139 141/53/141 100/73/100 98/72/98
f 142/53/142 99/73/99 101/74/101 144/51/144
f 141/53/141 143/51/143 102/74/102 100/73/100
f 144/51/144 101/74/101 103/75/103 146/49/146
f 143/51/143 145/49/145 104/75/104 102/74/102
f 146/49/146 103/75/103 105/76/105 148/47/148
f 145/49/145 147/47/147 106/76/106 104/75/104
f 148/47/148 105/76/105 107/77/107 150/43/150
f 147/47/147 149/43/149 108/77/108 106/76/106
f 150/43/150 107/77/107 110/69/110 151/44/151
f 149/43/149 152/44/152 109/69/109 108/77/108
