# Blender 4.3.2
# www.blender.org
mtllib roman.mtl
o Cylindre
v -0.074459 -0.009848 0.045734
v 0.074459 -0.009848 0.045734
v -0.074459 -0.011580 0.046522
v 0.074459 -0.011580 0.046522
v -0.074459 -0.012867 0.047421
v 0.074459 -0.012867 0.047421
v -0.074459 -0.013660 0.048397
v 0.074459 -0.013660 0.048397
v -0.074459 -0.013928 0.049411
v 0.074459 -0.013928 0.049411
v -0.074459 -0.013660 0.050426
v 0.074459 -0.013660 0.050426
v -0.074459 -0.012867 0.051401
v 0.074459 -0.012867 0.051401
v -0.074459 -0.011580 0.052300
v 0.074459 -0.011580 0.052300
v -0.074459 -0.009848 0.053088
v 0.074459 -0.009848 0.053088
v -0.074459 -0.007738 0.053735
v 0.074459 -0.007738 0.053735
v -0.074459 -0.005330 0.054215
v 0.074459 -0.005330 0.054215
v -0.074459 -0.002717 0.054511
v 0.074459 -0.002717 0.054511
v -0.074459 0.000000 0.054611
v 0.074459 -0.000000 0.054611
v -0.074459 0.002717 0.054511
v 0.074459 0.002717 0.054511
v -0.074459 0.005330 0.054215
v 0.074459 0.005330 0.054215
v -0.074459 0.007738 0.053735
v 0.074459 0.007738 0.053735
v -0.074459 0.009848 0.053088
v 0.074459 0.009848 0.053088
v -0.074459 0.011580 0.052300
v 0.074459 0.011580 0.052300
v -0.074459 0.012867 0.051401
v 0.074459 0.012867 0.051401
v -0.074459 0.013660 0.050426
v 0.074459 0.013660 0.050426
v -0.074459 0.013928 0.049411
v 0.074459 0.013928 0.049411
v -0.074459 0.013660 0.048397
v 0.074459 0.013660 0.048397
v -0.074459 0.012867 0.047421
v 0.074459 0.012867 0.047421
v -0.074459 0.011580 0.046522
v 0.074459 0.011580 0.046522
v -0.074459 -0.006894 0.046837
v 0.074459 -0.006894 0.046837
v -0.074459 -0.008106 0.047389
v 0.074459 -0.008106 0.047389
v -0.074459 -0.009007 0.048018
v 0.074459 -0.009007 0.048018
v -0.074459 -0.009562 0.048701
v 0.074459 -0.009562 0.048701
v -0.074459 -0.009749 0.049411
v 0.074459 -0.009749 0.049411
v -0.074459 -0.009562 0.050121
v 0.074459 -0.009562 0.050121
v -0.074459 -0.009007 0.050804
v 0.074459 -0.009007 0.050804
v -0.074459 -0.008106 0.051434
v 0.074459 -0.008106 0.051434
v -0.074459 -0.006894 0.051985
v 0.074459 -0.006894 0.051985
v -0.074459 -0.005416 0.052438
v 0.074459 -0.005416 0.052438
v -0.074459 -0.003731 0.052774
v 0.074459 -0.003731 0.052774
v -0.074459 -0.001902 0.052981
v 0.074459 -0.001902 0.052981
v -0.074459 0.000000 0.053051
v 0.074459 -0.000000 0.053051
v -0.074459 0.001902 0.052981
v 0.074459 0.001902 0.052981
v -0.074459 0.003731 0.052774
v 0.074459 0.003731 0.052774
v -0.074459 0.005416 0.052438
v 0.074459 0.005416 0.052438
v -0.074459 0.006894 0.051985
v 0.074459 0.006894 0.051985
v -0.074459 0.008106 0.051434
v 0.074459 0.008106 0.051434
v -0.074459 0.009007 0.050804
v 0.074459 0.009007 0.050804
v -0.074459 0.009562 0.050121
v 0.074459 0.009562 0.050121
v -0.074459 0.009749 0.049411
v 0.074459 0.009749 0.049411
v -0.074459 0.009562 0.048701
v 0.074459 0.009562 0.048701
v -0.074459 0.009007 0.048018
v 0.074459 0.009007 0.048018
v -0.074459 0.008106 0.047389
v 0.074459 0.008106 0.047389
vn -0.0487 -0.0183 -0.9986
vn 0.0487 -0.0183 -0.9986
vn -0.1028 -0.4852 -0.8683
vn 0.1028 -0.4852 -0.8683
vn -0.1267 -0.6641 -0.7368
vn 0.1267 -0.6641 -0.7368
vn -0.1566 -0.8717 -0.4644
vn 0.1566 -0.8717 -0.4644
vn -0.1735 -0.9848 -0.0000
vn 0.1735 -0.9848 -0.0000
vn -0.1566 -0.8717 0.4644
vn 0.1566 -0.8717 0.4644
vn -0.1267 -0.6641 0.7368
vn 0.1267 -0.6641 0.7368
vn -0.1028 -0.4852 0.8683
vn 0.1028 -0.4852 0.8683
vn -0.0868 -0.3485 0.9333
vn 0.0868 -0.3485 0.9333
vn -0.0765 -0.2413 0.9674
vn 0.0765 -0.2413 0.9674
vn -0.0702 -0.1525 0.9858
vn 0.0702 -0.1525 0.9858
vn -0.0667 -0.0739 0.9950
vn 0.0667 -0.0739 0.9950
vn -0.0656 -0.0000 0.9978
vn 0.0656 -0.0000 0.9978
vn -0.0667 0.0739 0.9950
vn 0.0667 0.0739 0.9950
vn -0.0702 0.1525 0.9858
vn 0.0702 0.1525 0.9858
vn -0.0765 0.2413 0.9674
vn 0.0765 0.2413 0.9674
vn -0.0868 0.3485 0.9333
vn 0.0868 0.3485 0.9333
vn -0.1028 0.4852 0.8683
vn 0.1028 0.4852 0.8683
vn -0.1267 0.6641 0.7368
vn 0.1267 0.6641 0.7368
vn -0.1566 0.8717 0.4644
vn 0.1566 0.8717 0.4644
vn -0.1735 0.9848 -0.0000
vn 0.1735 0.9848 -0.0000
vn -0.1566 0.8717 -0.4644
vn 0.1566 0.8717 -0.4644
vn -0.1267 0.6641 -0.7368
vn 0.1267 0.6641 -0.7368
vn -0.0500 0.0930 -0.9944
vn 0.0500 0.0930 -0.9944
vn -0.1320 0.9828 -0.1293
vn 0.1320 0.9828 -0.1293
vn -0.1164 0.4845 0.8670
vn 0.1164 0.4845 0.8670
vn -0.1432 0.6626 0.7351
vn 0.1432 0.6626 0.7351
vn -0.1769 0.8686 0.4628
vn 0.1769 0.8686 0.4628
vn -0.1958 0.9806 -0.0000
vn 0.1958 0.9806 -0.0000
vn -0.1769 0.8686 -0.4628
vn 0.1769 0.8686 -0.4628
vn -0.1432 0.6626 -0.7351
vn 0.1432 0.6626 -0.7351
vn -0.1164 0.4845 -0.8670
vn 0.1164 0.4845 -0.8670
vn -0.0983 0.3481 -0.9323
vn 0.0983 0.3481 -0.9323
vn -0.0867 0.2411 -0.9666
vn 0.0867 0.2411 -0.9666
vn -0.0795 0.1523 -0.9851
vn 0.0795 0.1523 -0.9851
vn -0.0756 0.0738 -0.9944
vn 0.0756 0.0738 -0.9944
vn -0.0744 -0.0000 -0.9972
vn 0.0744 -0.0000 -0.9972
vn -0.0756 -0.0738 -0.9944
vn 0.0756 -0.0738 -0.9944
vn -0.0795 -0.1523 -0.9851
vn 0.0795 -0.1523 -0.9851
vn -0.0867 -0.2411 -0.9666
vn 0.0867 -0.2411 -0.9666
vn -0.0983 -0.3481 -0.9323
vn 0.0983 -0.3481 -0.9323
vn -0.1164 -0.4845 -0.8670
vn 0.1164 -0.4845 -0.8670
vn -0.1432 -0.6626 -0.7351
vn 0.1432 -0.6626 -0.7351
vn -0.1769 -0.8686 -0.4628
vn 0.1769 -0.8686 -0.4628
vn -0.1958 -0.9806 -0.0000
vn 0.1958 -0.9806 -0.0000
vn -0.1769 -0.8686 0.4628
vn 0.1769 -0.8686 0.4628
vn -0.1432 -0.6626 0.7351
vn 0.1432 -0.6626 0.7351
vn -0.1141 -0.8250 -0.5535
vn 0.1141 -0.8250 -0.5535
vt 0.875000 0.500000
vt 0.875000 1.000000
vt 0.843750 1.000000
vt 0.843750 0.500000
vt 0.812500 1.000000
vt 0.812500 0.500000
vt 0.781250 1.000000
vt 0.781250 0.500000
vt 0.750000 1.000000
vt 0.750000 0.500000
vt 0.718750 1.000000
vt 0.718750 0.500000
vt 0.687500 1.000000
vt 0.687500 0.500000
vt 0.656250 1.000000
vt 0.656250 0.500000
vt 0.625000 1.000000
vt 0.625000 0.500000
vt 0.593750 1.000000
vt 0.593750 0.500000
vt 0.562500 1.000000
vt 0.562500 0.500000
vt 0.531250 1.000000
vt 0.531250 0.500000
vt 0.500000 1.000000
vt 0.500000 0.500000
vt 0.468750 1.000000
vt 0.468750 0.500000
vt 0.437500 1.000000
vt 0.437500 0.500000
vt 0.406250 1.000000
vt 0.406250 0.500000
vt 0.375000 1.000000
vt 0.375000 0.500000
vt 0.343750 1.000000
vt 0.343750 0.500000
vt 0.312500 1.000000
vt 0.312500 0.500000
vt 0.281250 1.000000
vt 0.281250 0.500000
vt 0.250000 1.000000
vt 0.250000 0.500000
vt 0.218750 1.000000
vt 0.218750 0.500000
vt 0.187500 1.000000
vt 0.187500 0.500000
vt 0.156250 1.000000
vt 0.156250 0.500000
vt 0.000000 0.000000
s 1
f 1/1/1 2/2/2 4/3/4 3/4/3
f 3/4/3 4/3/4 6/5/6 5/6/5
f 5/6/5 6/5/6 8/7/8 7/8/7
f 7/8/7 8/7/8 10/9/10 9/10/9
f 9/10/9 10/9/10 12/11/12 11/12/11
f 11/12/11 12/11/12 14/13/14 13/14/13
f 13/14/13 14/13/14 16/15/16 15/16/15
f 15/16/15 16/15/16 18/17/18 17/18/17
f 17/18/17 18/17/18 20/19/20 19/20/19
f 19/20/19 20/19/20 22/21/22 21/22/21
f 21/22/21 22/21/22 24/23/24 23/24/23
f 23/24/23 24/23/24 26/25/26 25/26/25
f 25/26/25 26/25/26 28/27/28 27/28/27
f 27/28/27 28/27/28 30/29/30 29/30/29
f 29/30/29 30/29/30 32/31/32 31/32/31
f 31/32/31 32/31/32 34/33/34 33/34/33
f 33/34/33 34/33/34 36/35/36 35/36/35
f 35/36/35 36/35/36 38/37/38 37/38/37
f 37/38/37 38/37/38 40/39/40 39/40/39
f 39/40/39 40/39/40 42/41/42 41/42/41
f 41/42/41 42/41/42 44/43/44 43/44/43
f 43/44/43 44/43/44 46/45/46 45/46/45
f 45/46/45 46/45/46 48/47/48 47/48/47
f 49/1/49 51/4/51 52/3/52 50/2/50
f 51/4/51 53/6/53 54/5/54 52/3/52
f 53/6/53 55/8/55 56/7/56 54/5/54
f 55/8/55 57/10/57 58/9/58 56/7/56
f 57/10/57 59/12/59 60/11/60 58/9/58
f 59/12/59 61/14/61 62/13/62 60/11/60
f 61/14/61 63/16/63 64/15/64 62/13/62
f 63/16/63 65/18/65 66/17/66 64/15/64
f 65/18/65 67/20/67 68/19/68 66/17/66
f 67/20/67 69/22/69 70/21/70 68/19/68
f 69/22/69 71/24/71 72/23/72 70/21/70
f 71/24/71 73/26/73 74/25/74 72/23/72
f 73/26/73 75/28/75 76/27/76 74/25/74
f 75/28/75 77/30/77 78/29/78 76/27/76
f 77/30/77 79/32/79 80/31/80 78/29/78
f 79/32/79 81/34/81 82/33/82 80/31/80
f 81/34/81 83/36/83 84/35/84 82/33/82
f 83/36/83 85/38/85 86/37/86 84/35/84
f 85/38/85 87/40/87 88/39/88 86/37/86
f 87/40/87 89/42/89 90/41/90 88/39/88
f 89/42/89 91/44/91 92/43/92 90/41/90
f 91/44/91 93/46/93 94/45/94 92/43/92
f 93/46/93 95/48/95 96/47/96 94/45/94
f 1/1/1 3/4/3 51/4/51 49/1/49
f 4/3/4 2/2/2 50/2/50 52/3/52
f 3/4/3 5/6/5 53/6/53 51/4/51
f 6/5/6 4/3/4 52/3/52 54/5/54
f 5/6/5 7/8/7 55/8/55 53/6/53
f 8/7/8 6/5/6 54/5/54 56/7/56
f 7/8/7 9/10/9 57/10/57 55/8/55
f 10/9/10 8/7/8 56/7/56 58/9/58
f 9/10/9 11/12/11 59/12/59 57/10/57
f 12/11/12 10/9/10 58/9/58 60/11/60
f 11/12/11 13/14/13 61/14/61 59/12/59
f 14/13/14 12/11/12 60/11/60 62/13/62
f 13/14/13 15/16/15 63/16/63 61/14/61
f 16/15/16 14/13/14 62/13/62 64/15/64
f 15/16/15 17/18/17 65/18/65 63/16/63
f 18/17/18 16/15/16 64/15/64 66/17/66
f 17/18/17 19/20/19 67/20/67 65/18/65
f 20/19/20 18/17/18 66/17/66 68/19/68
f 19/20/19 21/22/21 69/22/69 67/20/67
f 22/21/22 20/19/20 68/19/68 70/21/70
f 21/22/21 23/24/23 71/24/71 69/22/69
f 24/23/24 22/21/22 70/21/70 72/23/72
f 23/24/23 25/26/25 73/26/73 71/24/71
f 26/25/26 24/23/24 72/23/72 74/25/74
f 25/26/25 27/28/27 75/28/75 73/26/73
f 28/27/28 26/25/26 74/25/74 76/27/76
f 27/28/27 29/30/29 77/30/77 75/28/75
f 30/29/30 28/27/28 76/27/76 78/29/78
f 29/30/29 31/32/31 79/32/79 77/30/77
f 32/31/32 30/29/30 78/29/78 80/31/80
f 31/32/31 33/34/33 81/34/81 79/32/79
f 34/33/34 32/31/32 80/31/80 82/33/82
f 33/34/33 35/36/35 83/36/83 81/34/81
f 36/35/36 34/33/34 82/33/82 84/35/84
f 35/36/35 37/38/37 85/38/85 83/36/83
f 38/37/38 36/35/36 84/35/84 86/37/86
f 37/38/37 39/40/39 87/40/87 85/38/85
f 40/39/40 38/37/38 86/37/86 88/39/88
f 39/40/39 41/42/41 89/42/89 87/40/87
f 42/41/42 40/39/40 88/39/88 90/41/90
f 41/42/41 43/44/43 91/44/91 89/42/89
f 44/43/44 42/41/42 90/41/90 92/43/92
f 43/44/43 45/46/45 93/46/93 91/44/91
f 46/45/46 44/43/44 92/43/92 94/45/94
f 45/46/45 47/48/47 95/48/95 93/46/93
f 48/47/48 46/45/46 94/45/94 96/47/96
f 96/49/96 47/49/47 48/49/48
f 96/49/96 95/49/95 47/49/47
f 2/49/2 49/49/49 50/49/50
f 2/49/2 1/49/1 49/49/49
o Cube.001
v -0.073967 -0.014609 0.048707
v -0.073967 -0.008817 0.048707
v -0.073967 -0.014609 -0.048707
v -0.073967 -0.008817 -0.048707
v 0.073967 -0.014609 0.048707
v 0.073967 -0.008817 0.048707
v 0.073967 -0.014609 -0.048707
v 0.073967 -0.008817 -0.048707
v -0.075038 -0.013476 0.049412
v -0.075576 -0.012305 0.049766
v -0.075576 -0.011121 0.049766
v -0.075038 -0.009950 0.049412
v -0.075038 -0.009950 -0.049412
v -0.075576 -0.011121 -0.049766
v -0.075576 -0.012305 -0.049766
v -0.075038 -0.013476 -0.049412
v 0.075038 -0.009950 -0.049412
v 0.075576 -0.011121 -0.049766
v 0.075576 -0.012305 -0.049766
v 0.075038 -0.013476 -0.049412
v 0.075038 -0.009950 0.049412
v 0.075576 -0.011121 0.049766
v 0.075576 -0.012305 0.049766
v 0.075038 -0.013476 0.049412
v -0.073967 0.009101 0.048707
v -0.073967 0.014893 0.048707
v -0.073967 0.009101 -0.048707
v -0.073967 0.014893 -0.048707
v 0.073967 0.009101 0.048707
v 0.073967 0.014893 0.048707
v 0.073967 0.009101 -0.048707
v 0.073967 0.014893 -0.048707
v -0.075038 0.010234 0.049412
v -0.075576 0.011405 0.049766
v -0.075576 0.012589 0.049766
v -0.075038 0.013760 0.049412
v -0.075038 0.013760 -0.049412
v -0.075576 0.012589 -0.049766
v -0.075576 0.011405 -0.049766
v -0.075038 0.010234 -0.049412
v 0.075038 0.013760 -0.049412
v 0.075576 0.012589 -0.049766
v 0.075576 0.011405 -0.049766
v 0.075038 0.010234 -0.049412
v 0.075038 0.013760 0.049412
v 0.075576 0.012589 0.049766
v 0.075576 0.011405 0.049766
v 0.075038 0.010234 0.049412
vn -0.0370 -0.9971 0.0666
vn -0.0370 0.9971 0.0666
vn -0.0370 -0.9971 -0.0666
vn -0.0370 0.9971 -0.0666
vn 0.0370 -0.9971 0.0666
vn 0.0370 0.9971 0.0666
vn 0.0370 -0.9971 -0.0666
vn 0.0370 0.9971 -0.0666
vn -0.3891 -0.5948 0.7035
vn -0.4704 -0.2354 0.8505
vn -0.4704 0.2354 0.8505
vn -0.3891 0.5948 0.7035
vn -0.3891 0.5948 -0.7035
vn -0.4704 0.2354 -0.8505
vn -0.4704 -0.2354 -0.8505
vn -0.3891 -0.5948 -0.7035
vn 0.3891 0.5948 -0.7035
vn 0.4704 0.2354 -0.8505
vn 0.4704 -0.2354 -0.8505
vn 0.3891 -0.5948 -0.7035
vn 0.3891 0.5948 0.7035
vn 0.4704 0.2354 0.8505
vn 0.4704 -0.2354 0.8505
vn 0.3891 -0.5948 0.7035
vt 0.575000 0.000000
vt 0.625000 0.000000
vt 0.625000 0.250000
vt 0.575000 0.250000
vt 0.625000 0.500000
vt 0.575000 0.500000
vt 0.625000 0.750000
vt 0.575000 0.750000
vt 0.625000 1.000000
vt 0.575000 1.000000
vt 0.125000 0.500000
vt 0.375000 0.500000
vt 0.375000 0.750000
vt 0.125000 0.750000
vt 0.875000 0.500000
vt 0.875000 0.750000
vt 0.425000 0.750000
vt 0.425000 1.000000
vt 0.375000 1.000000
vt 0.475000 0.750000
vt 0.475000 1.000000
vt 0.525000 0.750000
vt 0.525000 1.000000
vt 0.425000 0.500000
vt 0.475000 0.500000
vt 0.525000 0.500000
vt 0.375000 0.250000
vt 0.425000 0.250000
vt 0.475000 0.250000
vt 0.525000 0.250000
vt 0.375000 0.000000
vt 0.425000 0.000000
vt 0.475000 0.000000
vt 0.525000 0.000000
s 1
f 108/50/108 98/51/98 100/52/100 109/53/109
f 109/53/109 100/52/100 104/54/104 113/55/113
f 113/55/113 104/54/104 102/56/102 117/57/117
f 117/57/117 102/56/102 98/58/98 108/59/108
f 99/60/99 103/61/103 101/62/101 97/63/97
f 104/54/104 100/64/100 98/65/98 102/56/102
f 101/62/101 120/66/120 105/67/105 97/68/97
f 120/66/120 119/69/119 106/70/106 105/67/105
f 119/69/119 118/71/118 107/72/107 106/70/106
f 118/71/118 117/57/117 108/59/108 107/72/107
f 103/61/103 116/73/116 120/66/120 101/62/101
f 116/73/116 115/74/115 119/69/119 120/66/120
f 115/74/115 114/75/114 118/71/118 119/69/119
f 114/75/114 113/55/113 117/57/117 118/71/118
f 99/76/99 112/77/112 116/73/116 103/61/103
f 112/77/112 111/78/111 115/74/115 116/73/116
f 111/78/111 110/79/110 114/75/114 115/74/115
f 110/79/110 109/53/109 113/55/113 114/75/114
f 97/80/97 105/81/105 112/77/112 99/76/99
f 105/81/105 106/82/106 111/78/111 112/77/112
f 106/82/106 107/83/107 110/79/110 111/78/111
f 107/83/107 108/50/108 109/53/109 110/79/110
f 132/50/108 122/51/98 124/52/100 133/53/109
f 133/53/109 124/52/100 128/54/104 137/55/113
f 137/55/113 128/54/104 126/56/102 141/57/117
f 141/57/117 126/56/102 122/58/98 132/59/108
f 123/60/99 127/61/103 125/62/101 121/63/97
f 128/54/104 124/64/100 122/65/98 126/56/102
f 125/62/101 144/66/120 129/67/105 121/68/97
f 144/66/120 143/69/119 130/70/106 129/67/105
f 143/69/119 142/71/118 131/72/107 130/70/106
f 142/71/118 141/57/117 132/59/108 131/72/107
f 127/61/103 140/73/116 144/66/120 125/62/101
f 140/73/116 139/74/115 143/69/119 144/66/120
f 139/74/115 138/75/114 142/71/118 143/69/119
f 138/75/114 137/55/113 141/57/117 142/71/118
f 123/76/99 136/77/112 140/73/116 127/61/103
f 136/77/112 135/78/111 139/74/115 140/73/116
f 135/78/111 134/79/110 138/75/114 139/74/115
f 134/79/110 133/53/109 137/55/113 138/75/114
f 121/80/97 129/81/105 136/77/112 123/76/99
f 129/81/105 130/82/106 135/78/111 136/77/112
f 130/82/106 131/83/107 134/79/110 135/78/111
f 131/83/107 132/50/108 133/53/109 134/79/110
o Cube.002
v -0.074600 -0.008560 0.048722
v -0.074600 0.008560 0.048722
v -0.074600 -0.008560 -0.047109
v -0.074600 0.008560 -0.047109
v 0.074600 -0.008560 0.048722
v 0.074600 0.008560 0.048722
v 0.074600 -0.008560 -0.047109
v 0.074600 0.008560 -0.047109
v -0.074600 -0.007419 0.049175
v -0.074600 -0.006277 0.049658
v -0.074600 -0.005136 0.050137
v -0.074600 -0.003995 0.050573
v -0.074600 -0.002853 0.050930
v -0.074600 -0.001712 0.051172
v -0.074600 -0.000571 0.051260
v -0.074600 0.000571 0.051260
v -0.074600 0.001712 0.051172
v -0.074600 0.002853 0.050930
v -0.074600 0.003995 0.050573
v -0.074600 0.005136 0.050137
v -0.074600 0.006277 0.049658
v -0.074600 0.007419 0.049175
v -0.074600 0.007419 -0.046657
v -0.074600 0.006277 -0.046173
v -0.074600 0.005136 -0.045695
v -0.074600 0.003995 -0.045258
v -0.074600 0.002853 -0.044901
v -0.074600 0.001712 -0.044660
v -0.074600 0.000571 -0.044571
v -0.074600 -0.000571 -0.044571
v -0.074600 -0.001712 -0.044660
v -0.074600 -0.002853 -0.044901
v -0.074600 -0.003995 -0.045258
v -0.074600 -0.005136 -0.045695
v -0.074600 -0.006277 -0.046173
v -0.074600 -0.007419 -0.046657
v 0.074600 0.007419 -0.046657
v 0.074600 0.006277 -0.046173
v 0.074600 0.005136 -0.045695
v 0.074600 0.003995 -0.045258
v 0.074600 0.002853 -0.044901
v 0.074600 0.001712 -0.044660
v 0.074600 0.000571 -0.044571
v 0.074600 -0.000571 -0.044571
v 0.074600 -0.001712 -0.044660
v 0.074600 -0.002853 -0.044901
v 0.074600 -0.003995 -0.045258
v 0.074600 -0.005136 -0.045695
v 0.074600 -0.006277 -0.046173
v 0.074600 -0.007419 -0.046657
v 0.074600 0.007419 0.049175
v 0.074600 0.006277 0.049658
v 0.074600 0.005136 0.050137
v 0.074600 0.003995 0.050573
v 0.074600 0.002853 0.050930
v 0.074600 0.001712 0.051172
v 0.074600 0.000571 0.051260
v 0.074600 -0.000571 0.051260
v 0.074600 -0.001712 0.051172
v 0.074600 -0.002853 0.050930
v 0.074600 -0.003995 0.050573
v 0.074600 -0.005136 0.050137
v 0.074600 -0.006277 0.049658
v 0.074600 -0.007419 0.049175
vn -1.0000 -0.0000 -0.0000
vn -0.0000 -0.3683 -0.9297
vn 1.0000 -0.0000 -0.0000
vn -0.0000 0.3683 0.9297
vn -0.0000 -1.0000 -0.0000
vn -0.0000 1.0000 -0.0000
vn -0.0000 -0.3683 0.9297
vn -0.0000 -0.3902 0.9207
vn -0.0000 -0.3866 0.9223
vn -0.0000 -0.3570 0.9341
vn -0.0000 -0.2987 0.9544
vn -0.0000 -0.2069 0.9784
vn -0.0000 -0.0774 0.9970
vn -0.0000 -0.0000 1.0000
vn -0.0000 0.0774 0.9970
vn -0.0000 0.2069 0.9784
vn -0.0000 0.2987 0.9544
vn -0.0000 0.3570 0.9341
vn -0.0000 0.3866 0.9223
vn -0.0000 0.3902 0.9207
vn -0.0000 0.3683 -0.9297
vn -0.0000 0.3902 -0.9207
vn -0.0000 0.3866 -0.9223
vn -0.0000 0.3570 -0.9341
vn -0.0000 0.2987 -0.9544
vn -0.0000 0.2069 -0.9784
vn -0.0000 0.0774 -0.9970
vn -0.0000 -0.0000 -1.0000
vn -0.0000 -0.0774 -0.9970
vn -0.0000 -0.2069 -0.9784
vn -0.0000 -0.2987 -0.9544
vn -0.0000 -0.3570 -0.9341
vn -0.0000 -0.3866 -0.9223
vn -0.0000 -0.3902 -0.9207
vt 0.608333 0.000000
vt 0.625000 0.000000
vt 0.625000 0.250000
vt 0.608333 0.250000
vt 0.625000 0.500000
vt 0.608333 0.500000
vt 0.625000 0.750000
vt 0.608333 0.750000
vt 0.625000 1.000000
vt 0.608333 1.000000
vt 0.125000 0.500000
vt 0.375000 0.500000
vt 0.375000 0.750000
vt 0.125000 0.750000
vt 0.875000 0.500000
vt 0.875000 0.750000
vt 0.391667 0.750000
vt 0.391667 1.000000
vt 0.375000 1.000000
vt 0.408333 0.750000
vt 0.408333 1.000000
vt 0.425000 0.750000
vt 0.425000 1.000000
vt 0.441667 0.750000
vt 0.441667 1.000000
vt 0.458333 0.750000
vt 0.458333 1.000000
vt 0.475000 0.750000
vt 0.475000 1.000000
vt 0.491667 0.750000
vt 0.491667 1.000000
vt 0.508333 0.750000
vt 0.508333 1.000000
vt 0.525000 0.750000
vt 0.525000 1.000000
vt 0.541667 0.750000
vt 0.541667 1.000000
vt 0.558333 0.750000
vt 0.558333 1.000000
vt 0.575000 0.750000
vt 0.575000 1.000000
vt 0.591667 0.750000
vt 0.591667 1.000000
vt 0.391667 0.500000
vt 0.408333 0.500000
vt 0.425000 0.500000
vt 0.441667 0.500000
vt 0.458333 0.500000
vt 0.475000 0.500000
vt 0.491667 0.500000
vt 0.508333 0.500000
vt 0.525000 0.500000
vt 0.541667 0.500000
vt 0.558333 0.500000
vt 0.575000 0.500000
vt 0.591667 0.500000
vt 0.375000 0.250000
vt 0.391667 0.250000
vt 0.408333 0.250000
vt 0.425000 0.250000
vt 0.441667 0.250000
vt 0.458333 0.250000
vt 0.475000 0.250000
vt 0.491667 0.250000
vt 0.508333 0.250000
vt 0.525000 0.250000
vt 0.541667 0.250000
vt 0.558333 0.250000
vt 0.575000 0.250000
vt 0.591667 0.250000
vt 0.375000 0.000000
vt 0.391667 0.000000
vt 0.408333 0.000000
vt 0.425000 0.000000
vt 0.441667 0.000000
vt 0.458333 0.000000
vt 0.475000 0.000000
vt 0.491667 0.000000
vt 0.508333 0.000000
vt 0.525000 0.000000
vt 0.541667 0.000000
vt 0.558333 0.000000
vt 0.575000 0.000000
vt 0.591667 0.000000
s 0
f 166/84/121 146/85/121 148/86/121 167/87/121
f 167/87/122 148/86/122 152/88/122 181/89/122
f 181/89/123 152/88/123 150/90/123 195/91/123
f 195/91/124 150/90/124 146/92/124 166/93/124
f 147/94/125 151/95/125 149/96/125 145/97/125
f 152/88/126 148/98/126 146/99/126 150/90/126
f 149/96/127 208/100/127 153/101/127 145/102/127
f 208/100/128 207/103/128 154/104/128 153/101/128
f 207/103/129 206/105/129 155/106/129 154/104/129
f 206/105/130 205/107/130 156/108/130 155/106/130
f 205/107/131 204/109/131 157/110/131 156/108/131
f 204/109/132 203/111/132 158/112/132 157/110/132
f 203/111/133 202/113/133 159/114/133 158/112/133
f 202/113/134 201/115/134 160/116/134 159/114/134
f 201/115/135 200/117/135 161/118/135 160/116/135
f 200/117/136 199/119/136 162/120/136 161/118/136
f 199/119/137 198/121/137 163/122/137 162/120/137
f 198/121/138 197/123/138 164/124/138 163/122/138
f 197/123/139 196/125/139 165/126/139 164/124/139
f 196/125/140 195/91/140 166/93/140 165/126/140
f 151/95/123 194/127/123 208/100/123 149/96/123
f 194/127/123 193/128/123 207/103/123 208/100/123
f 193/128/123 192/129/123 206/105/123 207/103/123
f 192/129/123 191/130/123 205/107/123 206/105/123
f 191/130/123 190/131/123 204/109/123 205/107/123
f 190/131/123 189/132/123 203/111/123 204/109/123
f 189/132/123 188/133/123 202/113/123 203/111/123
f 188/133/123 187/134/123 201/115/123 202/113/123
f 187/134/123 186/135/123 200/117/123 201/115/123
f 186/135/123 185/136/123 199/119/123 200/117/123
f 185/136/123 184/137/123 198/121/123 199/119/123
f 184/137/123 183/138/123 197/123/123 198/121/123
f 183/138/123 182/139/123 196/125/123 197/123/123
f 182/139/123 181/89/123 195/91/123 196/125/123
f 147/140/141 180/141/141 194/127/141 151/95/141
f 180/141/142 179/142/142 193/128/142 194/127/142
f 179/142/143 178/143/143 192/129/143 193/128/143
f 178/143/144 177/144/144 191/130/144 192/129/144
f 177/144/145 176/145/145 190/131/145 191/130/145
f 176/145/146 175/146/146 189/132/146 190/131/146
f 175/146/147 174/147/147 188/133/147 189/132/147
f 174/147/148 173/148/148 187/134/148 188/133/148
f 173/148/149 172/149/149 186/135/149 187/134/149
f 172/149/150 171/150/150 185/136/150 186/135/150
f 171/150/151 170/151/151 184/137/151 185/136/151
f 170/151/152 169/152/152 183/138/152 184/137/152
f 169/152/153 168/153/153 182/139/153 183/138/153
f 168/153/154 167/87/154 181/89/154 182/139/154
f 145/154/121 153/155/121 180/141/121 147/140/121
f 153/155/121 154/156/121 179/142/121 180/141/121
f 154/156/121 155/157/121 178/143/121 179/142/121
f 155/157/121 156/158/121 177/144/121 178/143/121
f 156/158/121 157/159/121 176/145/121 177/144/121
f 157/159/121 158/160/121 175/146/121 176/145/121
f 158/160/121 159/161/121 174/147/121 175/146/121
f 159/161/121 160/162/121 173/148/121 174/147/121
f 160/162/121 161/163/121 172/149/121 173/148/121
f 161/163/121 162/164/121 171/150/121 172/149/121
f 162/164/121 163/165/121 170/151/121 171/150/121
f 163/165/121 164/166/121 169/152/121 170/151/121
f 164/166/121 165/167/121 168/153/121 169/152/121
f 165/167/121 166/84/121 167/87/121 168/153/121
